P3
# CREATOR 
64
32
255
255
0
255
255
0
255
255
0
255
255
0
255
255
0
255
255
0
255
255
0
255
255
0
255
255
0
255
255
0
255
255
0
255
255
0
255
255
0
255
255
0
255
255
0
255
255
0
255
255
0
255
255
0
255
255
0
255
255
0
255
255
0
255
255
0
255
255
0
255
255
0
255
255
0
255
255
0
255
255
0
255
255
0
255
255
0
255
255
0
255
72
120
216
72
120
216
72
144
216
255
0
255
255
0
255
255
0
255
255
0
255
255
0
255
255
0
255
255
0
255
255
0
255
255
0
255
255
0
255
255
0
255
255
0
255
255
0
255
255
0
255
255
0
255
255
0
255
255
0
255
255
0
255
255
0
255
255
0
255
255
0
255
255
0
255
255
0
255
255
0
255
255
0
255
255
0
255
255
0
255
255
0
255
255
0
255
255
0
255
255
0
255
255
0
255
255
0
255
255
0
255
255
0
255
255
0
255
255
0
255
255
0
255
255
0
255
255
0
255
255
0
255
255
0
255
255
0
255
255
0
255
255
0
255
255
0
255
255
0
255
255
0
255
255
0
255
255
0
255
255
0
255
255
0
255
255
0
255
255
0
255
255
0
255
255
0
255
255
0
255
255
0
255
255
0
255
72
120
216
72
120
216
72
120
216
72
120
216
72
120
216
72
120
216
72
144
216
255
0
255
255
0
255
255
0
255
255
0
255
255
0
255
255
0
255
255
0
255
255
0
255
255
0
255
255
0
255
255
0
255
255
0
255
255
0
255
255
0
255
255
0
255
255
0
255
255
0
255
255
0
255
255
0
255
255
0
255
255
0
255
255
0
255
255
0
255
255
0
255
255
0
255
255
0
255
255
0
255
255
0
255
255
0
255
255
0
255
255
0
255
255
0
255
255
0
255
255
0
255
255
0
255
255
0
255
255
0
255
255
0
255
255
0
255
255
0
255
255
0
255
255
0
255
255
0
255
255
0
255
255
0
255
255
0
255
255
0
255
255
0
255
255
0
255
255
0
255
255
0
255
255
0
255
255
0
255
255
0
255
255
0
255
72
120
216
72
120
216
72
120
216
72
120
216
72
120
216
72
120
216
72
120
216
72
120
216
72
120
216
72
120
216
72
144
216
255
0
255
255
0
255
255
0
255
255
0
255
255
0
255
255
0
255
255
0
255
255
0
255
255
0
255
255
0
255
255
0
255
255
0
255
255
0
255
255
0
255
255
0
255
255
0
255
255
0
255
255
0
255
255
0
255
255
0
255
255
0
255
255
0
255
255
0
255
255
0
255
255
0
255
255
0
255
255
0
255
255
0
255
255
0
255
255
0
255
255
0
255
255
0
255
255
0
255
255
0
255
255
0
255
255
0
255
255
0
255
255
0
255
255
0
255
255
0
255
255
0
255
255
0
255
255
0
255
255
0
255
255
0
255
255
0
255
255
0
255
255
0
255
255
0
255
255
0
255
255
0
255
72
144
216
72
144
216
72
144
216
72
120
216
72
120
216
72
120
216
72
120
216
72
120
216
72
120
216
72
120
216
72
120
216
72
120
216
72
120
216
72
120
216
72
144
216
255
0
255
255
0
255
255
0
255
255
0
255
255
0
255
255
0
255
255
0
255
255
0
255
255
0
255
255
0
255
255
0
255
255
0
255
255
0
255
255
0
255
255
0
255
255
0
255
255
0
255
255
0
255
255
0
255
255
0
255
255
0
255
255
0
255
255
0
255
255
0
255
255
0
255
255
0
255
255
0
255
255
0
255
255
0
255
255
0
255
255
0
255
255
0
255
255
0
255
255
0
255
255
0
255
255
0
255
255
0
255
255
0
255
255
0
255
255
0
255
255
0
255
255
0
255
255
0
255
255
0
255
255
0
255
255
0
255
255
0
255
72
120
216
72
120
216
72
144
216
72
144
216
72
144
216
72
144
216
72
144
216
72
120
216
72
120
216
72
120
216
72
120
216
72
120
216
72
120
216
72
120
216
72
120
216
72
120
216
72
120
216
72
120
216
72
144
216
255
0
255
255
0
255
255
0
255
255
0
255
255
0
255
255
0
255
255
0
255
255
0
255
255
0
255
255
0
255
255
0
255
255
0
255
255
0
255
255
0
255
255
0
255
255
0
255
255
0
255
255
0
255
255
0
255
255
0
255
255
0
255
255
0
255
255
0
255
255
0
255
255
0
255
255
0
255
255
0
255
255
0
255
255
0
255
255
0
255
255
0
255
255
0
255
255
0
255
255
0
255
255
0
255
255
0
255
255
0
255
255
0
255
255
0
255
255
0
255
255
0
255
255
0
255
255
0
255
72
120
216
72
120
216
72
120
216
72
120
216
72
120
216
72
120
216
72
144
216
72
144
216
72
144
216
72
144
216
72
144
216
72
120
216
72
120
216
72
120
216
72
120
216
72
120
216
72
120
216
72
120
216
72
120
216
72
120
216
72
120
216
72
120
216
72
144
216
255
0
255
255
0
255
255
0
255
255
0
255
255
0
255
255
0
255
255
0
255
255
0
255
255
0
255
255
0
255
255
0
255
255
0
255
255
0
255
255
0
255
255
0
255
255
0
255
255
0
255
255
0
255
255
0
255
255
0
255
255
0
255
255
0
255
255
0
255
255
0
255
255
0
255
255
0
255
255
0
255
255
0
255
255
0
255
255
0
255
255
0
255
255
0
255
255
0
255
255
0
255
255
0
255
255
0
255
255
0
255
255
0
255
255
0
255
72
120
216
72
120
216
72
120
216
72
120
216
72
120
216
72
120
216
72
120
216
72
120
216
72
120
216
72
120
216
72
144
216
72
144
216
72
144
216
72
144
216
72
144
216
72
120
216
72
120
216
72
120
216
72
120
216
72
120
216
72
120
216
72
120
216
72
120
216
72
120
216
72
120
216
72
120
216
72
144
216
255
0
255
255
0
255
255
0
255
255
0
255
255
0
255
255
0
255
255
0
255
255
0
255
255
0
255
255
0
255
255
0
255
255
0
255
255
0
255
255
0
255
255
0
255
255
0
255
255
0
255
255
0
255
255
0
255
255
0
255
255
0
255
255
0
255
255
0
255
255
0
255
255
0
255
255
0
255
255
0
255
255
0
255
255
0
255
255
0
255
255
0
255
255
0
255
255
0
255
255
0
255
255
0
255
72
144
216
72
144
216
72
144
216
72
120
216
72
120
216
72
120
216
72
120
216
72
120
216
72
120
216
72
120
216
72
120
216
72
120
216
72
120
216
72
120
216
72
144
216
72
144
216
72
144
216
72
144
216
72
144
216
72
120
216
72
120
216
72
120
216
72
120
216
72
120
216
72
120
216
72
120
216
72
120
216
72
120
216
72
120
216
72
120
216
72
144
216
255
0
255
255
0
255
255
0
255
255
0
255
255
0
255
255
0
255
255
0
255
255
0
255
255
0
255
255
0
255
255
0
255
255
0
255
255
0
255
255
0
255
255
0
255
255
0
255
255
0
255
255
0
255
255
0
255
255
0
255
255
0
255
255
0
255
255
0
255
255
0
255
255
0
255
255
0
255
255
0
255
255
0
255
255
0
255
255
0
255
255
0
255
72
120
216
72
120
216
72
144
216
72
144
216
72
144
216
72
144
216
72
144
216
72
120
216
72
120
216
72
120
216
72
120
216
72
120
216
72
120
216
72
120
216
72
120
216
72
120
216
72
120
216
72
120
216
72
144
216
72
144
216
72
144
216
72
144
216
72
144
216
72
120
216
72
120
216
72
120
216
72
120
216
72
120
216
72
120
216
72
120
216
72
120
216
72
120
216
72
120
216
72
120
216
72
144
216
255
0
255
255
0
255
255
0
255
255
0
255
255
0
255
255
0
255
255
0
255
255
0
255
255
0
255
255
0
255
255
0
255
255
0
255
255
0
255
255
0
255
255
0
255
255
0
255
255
0
255
255
0
255
255
0
255
255
0
255
255
0
255
255
0
255
255
0
255
255
0
255
255
0
255
255
0
255
255
0
255
72
120
216
72
120
216
72
120
216
72
120
216
72
120
216
72
120
216
72
144
216
72
144
216
72
144
216
72
144
216
72
144
216
72
120
216
72
120
216
72
120
216
72
120
216
72
120
216
72
120
216
72
120
216
72
120
216
72
120
216
72
120
216
72
120
216
72
144
216
72
144
216
72
144
216
72
144
216
72
144
216
72
120
216
72
120
216
72
120
216
72
120
216
72
120
216
72
120
216
72
120
216
72
120
216
72
120
216
72
120
216
72
120
216
72
144
216
255
0
255
255
0
255
255
0
255
255
0
255
255
0
255
255
0
255
255
0
255
255
0
255
255
0
255
255
0
255
255
0
255
255
0
255
255
0
255
255
0
255
255
0
255
255
0
255
255
0
255
255
0
255
255
0
255
255
0
255
255
0
255
255
0
255
255
0
255
72
120
216
72
120
216
72
120
216
72
120
216
72
120
216
72
120
216
72
120
216
72
120
216
72
120
216
72
120
216
72
144
216
72
144
216
72
144
216
72
144
216
72
144
216
72
120
216
72
120
216
72
120
216
72
120
216
72
120
216
72
120
216
72
120
216
72
120
216
72
120
216
72
120
216
72
120
216
72
144
216
72
144
216
72
144
216
72
144
216
72
144
216
72
120
216
72
120
216
72
120
216
72
120
216
72
120
216
72
120
216
72
120
216
72
120
216
72
120
216
72
120
216
72
120
216
72
144
216
255
0
255
255
0
255
255
0
255
255
0
255
255
0
255
255
0
255
255
0
255
255
0
255
255
0
255
255
0
255
255
0
255
255
0
255
255
0
255
255
0
255
255
0
255
255
0
255
255
0
255
255
0
255
255
0
255
72
144
216
72
144
216
72
144
216
72
120
216
72
120
216
72
120
216
72
120
216
72
120
216
72
120
216
72
120
216
72
120
216
72
120
216
72
120
216
72
120
216
72
144
216
72
144
216
72
144
216
72
144
216
72
144
216
72
120
216
72
120
216
72
120
216
72
120
216
72
120
216
72
120
216
72
120
216
72
120
216
72
120
216
72
120
216
72
120
216
72
144
216
72
144
216
72
144
216
72
144
216
72
144
216
72
120
216
72
120
216
72
120
216
72
120
216
72
120
216
72
120
216
72
120
216
72
120
216
72
120
216
72
120
216
72
120
216
72
144
216
255
0
255
255
0
255
255
0
255
255
0
255
255
0
255
255
0
255
255
0
255
255
0
255
255
0
255
255
0
255
255
0
255
255
0
255
255
0
255
255
0
255
255
0
255
72
120
216
72
120
216
72
144
216
72
144
216
72
144
216
72
144
216
72
144
216
72
120
216
72
120
216
72
120
216
72
120
216
72
120
216
72
120
216
72
120
216
72
120
216
72
120
216
72
120
216
72
120
216
72
144
216
72
144
216
72
144
216
72
144
216
72
144
216
72
120
216
72
120
216
72
120
216
72
120
216
72
120
216
72
120
216
72
120
216
72
120
216
72
120
216
72
120
216
72
120
216
72
144
216
72
144
216
72
144
216
72
144
216
72
144
216
72
120
216
72
120
216
72
120
216
72
120
216
72
120
216
72
120
216
72
120
216
72
120
216
72
120
216
72
120
216
72
120
216
72
144
216
255
0
255
255
0
255
255
0
255
255
0
255
255
0
255
255
0
255
255
0
255
255
0
255
255
0
255
255
0
255
255
0
255
72
120
216
72
120
216
72
120
216
72
120
216
72
120
216
72
120
216
72
144
216
72
144
216
72
144
216
72
144
216
72
144
216
72
120
216
72
120
216
72
120
216
72
120
216
72
120
216
72
120
216
72
120
216
72
120
216
72
120
216
72
120
216
72
120
216
72
144
216
72
144
216
72
144
216
72
144
216
72
144
216
72
120
216
72
120
216
72
120
216
72
120
216
72
120
216
72
120
216
72
120
216
72
120
216
72
120
216
72
120
216
72
120
216
72
144
216
72
144
216
72
144
216
72
144
216
72
144
216
72
120
216
72
120
216
72
120
216
72
120
216
72
120
216
72
120
216
72
120
216
72
120
216
72
120
216
72
120
216
72
120
216
72
144
216
255
0
255
255
0
255
255
0
255
255
0
255
255
0
255
255
0
255
255
0
255
72
120
216
72
120
216
72
120
216
72
120
216
72
120
216
72
120
216
72
120
216
72
120
216
72
120
216
72
120
216
72
144
216
72
144
216
72
144
216
72
144
216
72
144
216
72
120
216
72
120
216
72
120
216
72
120
216
72
120
216
72
120
216
72
120
216
72
120
216
72
120
216
72
120
216
72
120
216
72
144
216
72
144
216
72
144
216
72
144
216
72
144
216
72
120
216
72
120
216
72
120
216
72
120
216
72
120
216
72
120
216
72
120
216
72
120
216
72
120
216
72
120
216
72
120
216
72
144
216
72
144
216
72
144
216
72
144
216
72
144
216
72
120
216
72
120
216
72
120
216
72
120
216
72
120
216
72
120
216
72
120
216
72
120
216
72
120
216
72
120
216
72
120
216
72
144
216
255
0
255
255
0
255
255
0
255
72
144
216
72
144
216
72
144
216
72
120
216
72
120
216
72
120
216
72
120
216
72
120
216
72
120
216
72
120
216
72
120
216
72
120
216
72
120
216
72
120
216
72
144
216
72
144
216
72
144
216
72
144
216
72
144
216
72
120
216
72
120
216
72
120
216
72
120
216
72
120
216
72
120
216
72
120
216
72
120
216
72
120
216
72
120
216
72
120
216
72
144
216
72
144
216
72
144
216
72
144
216
72
144
216
72
120
216
72
120
216
72
120
216
72
120
216
72
120
216
72
120
216
72
120
216
72
120
216
72
120
216
72
120
216
72
120
216
72
144
216
72
144
216
72
144
216
72
144
216
72
144
216
72
120
216
72
120
216
72
120
216
72
120
216
72
120
216
72
120
216
72
120
216
72
120
216
72
120
216
72
120
216
72
120
216
72
144
216
255
0
255
255
0
255
72
144
216
72
144
216
72
144
216
72
144
216
72
120
216
72
120
216
72
120
216
72
120
216
72
120
216
72
120
216
72
120
216
72
120
216
72
120
216
72
120
216
72
120
216
72
144
216
72
144
216
72
144
216
72
144
216
72
144
216
72
120
216
72
120
216
72
120
216
72
120
216
72
120
216
72
120
216
72
120
216
72
120
216
72
120
216
72
120
216
72
120
216
72
144
216
72
144
216
72
144
216
72
144
216
72
144
216
72
120
216
72
120
216
72
120
216
72
120
216
72
120
216
72
120
216
72
120
216
72
120
216
72
120
216
72
120
216
72
120
216
72
144
216
72
144
216
72
144
216
72
144
216
72
144
216
72
120
216
72
120
216
72
120
216
72
120
216
72
120
216
72
120
216
72
120
216
72
120
216
72
120
216
255
0
255
255
0
255
255
0
255
255
0
255
255
0
255
72
144
216
72
144
216
72
144
216
72
144
216
72
120
216
72
120
216
72
120
216
72
120
216
72
120
216
72
120
216
72
120
216
72
120
216
72
120
216
72
120
216
72
120
216
72
144
216
72
144
216
72
144
216
72
144
216
72
144
216
72
120
216
72
120
216
72
120
216
72
120
216
72
120
216
72
120
216
72
120
216
72
120
216
72
120
216
72
120
216
72
120
216
72
144
216
72
144
216
72
144
216
72
144
216
72
144
216
72
120
216
72
120
216
72
120
216
72
120
216
72
120
216
72
120
216
72
120
216
72
120
216
72
120
216
72
120
216
72
120
216
72
144
216
72
144
216
72
144
216
72
144
216
72
144
216
72
120
216
72
120
216
72
120
216
72
120
216
72
120
216
255
0
255
255
0
255
255
0
255
255
0
255
255
0
255
255
0
255
255
0
255
255
0
255
255
0
255
72
144
216
72
144
216
72
144
216
72
144
216
72
120
216
72
120
216
72
120
216
72
120
216
72
120
216
72
120
216
72
120
216
72
120
216
72
120
216
72
120
216
72
120
216
72
144
216
72
144
216
72
144
216
72
144
216
72
144
216
72
120
216
72
120
216
72
120
216
72
120
216
72
120
216
72
120
216
72
120
216
72
120
216
72
120
216
72
120
216
72
120
216
72
144
216
72
144
216
72
144
216
72
144
216
72
144
216
72
120
216
72
120
216
72
120
216
72
120
216
72
120
216
72
120
216
72
120
216
72
120
216
72
120
216
72
120
216
72
120
216
72
144
216
72
144
216
72
144
216
72
144
216
72
144
216
72
120
216
255
0
255
255
0
255
255
0
255
255
0
255
255
0
255
255
0
255
255
0
255
255
0
255
255
0
255
255
0
255
255
0
255
255
0
255
255
0
255
72
144
216
72
144
216
72
144
216
72
144
216
72
120
216
72
120
216
72
120
216
72
120
216
72
120
216
72
120
216
72
120
216
72
120
216
72
120
216
72
120
216
72
120
216
72
144
216
72
144
216
72
144
216
72
144
216
72
144
216
72
120
216
72
120
216
72
120
216
72
120
216
72
120
216
72
120
216
72
120
216
72
120
216
72
120
216
72
120
216
72
120
216
72
144
216
72
144
216
72
144
216
72
144
216
72
144
216
72
120
216
72
120
216
72
120
216
72
120
216
72
120
216
72
120
216
72
120
216
72
120
216
72
120
216
72
120
216
72
120
216
72
144
216
72
144
216
255
0
255
255
0
255
255
0
255
255
0
255
255
0
255
255
0
255
255
0
255
255
0
255
255
0
255
255
0
255
255
0
255
255
0
255
255
0
255
255
0
255
255
0
255
255
0
255
255
0
255
72
144
216
72
144
216
72
144
216
72
144
216
72
120
216
72
120
216
72
120
216
72
120
216
72
120
216
72
120
216
72
120
216
72
120
216
72
120
216
72
120
216
72
120
216
72
144
216
72
144
216
72
144
216
72
144
216
72
144
216
72
120
216
72
120
216
72
120
216
72
120
216
72
120
216
72
120
216
72
120
216
72
120
216
72
120
216
72
120
216
72
120
216
72
144
216
72
144
216
72
144
216
72
144
216
72
144
216
72
120
216
72
120
216
72
120
216
72
120
216
72
120
216
72
120
216
72
120
216
72
120
216
72
120
216
255
0
255
255
0
255
255
0
255
255
0
255
255
0
255
255
0
255
255
0
255
255
0
255
255
0
255
255
0
255
255
0
255
255
0
255
255
0
255
255
0
255
255
0
255
255
0
255
255
0
255
255
0
255
255
0
255
255
0
255
255
0
255
72
144
216
72
144
216
72
144
216
72
144
216
72
120
216
72
120
216
72
120
216
72
120
216
72
120
216
72
120
216
72
120
216
72
120
216
72
120
216
72
120
216
72
120
216
72
144
216
72
144
216
72
144
216
72
144
216
72
144
216
72
120
216
72
120
216
72
120
216
72
120
216
72
120
216
72
120
216
72
120
216
72
120
216
72
120
216
72
120
216
72
120
216
72
144
216
72
144
216
72
144
216
72
144
216
72
144
216
72
120
216
72
120
216
72
120
216
72
120
216
72
120
216
255
0
255
255
0
255
255
0
255
255
0
255
255
0
255
255
0
255
255
0
255
255
0
255
255
0
255
255
0
255
255
0
255
255
0
255
255
0
255
255
0
255
255
0
255
255
0
255
255
0
255
255
0
255
255
0
255
255
0
255
255
0
255
255
0
255
255
0
255
255
0
255
255
0
255
72
144
216
72
144
216
72
144
216
72
144
216
72
120
216
72
120
216
72
120
216
72
120
216
72
120
216
72
120
216
72
120
216
72
120
216
72
120
216
72
120
216
72
120
216
72
144
216
72
144
216
72
144
216
72
144
216
72
144
216
72
120
216
72
120
216
72
120
216
72
120
216
72
120
216
72
120
216
72
120
216
72
120
216
72
120
216
72
120
216
72
120
216
72
144
216
72
144
216
72
144
216
72
144
216
72
144
216
72
120
216
255
0
255
255
0
255
255
0
255
255
0
255
255
0
255
255
0
255
255
0
255
255
0
255
255
0
255
255
0
255
255
0
255
255
0
255
255
0
255
255
0
255
255
0
255
255
0
255
255
0
255
255
0
255
255
0
255
255
0
255
255
0
255
255
0
255
255
0
255
255
0
255
255
0
255
255
0
255
255
0
255
255
0
255
255
0
255
72
144
216
72
144
216
72
144
216
72
144
216
72
120
216
72
120
216
72
120
216
72
120
216
72
120
216
72
120
216
72
120
216
72
120
216
72
120
216
72
120
216
72
120
216
72
144
216
72
144
216
72
144
216
72
144
216
72
144
216
72
120
216
72
120
216
72
120
216
72
120
216
72
120
216
72
120
216
72
120
216
72
120
216
72
120
216
72
120
216
72
120
216
72
144
216
72
144
216
255
0
255
255
0
255
255
0
255
255
0
255
255
0
255
255
0
255
255
0
255
255
0
255
255
0
255
255
0
255
255
0
255
255
0
255
255
0
255
255
0
255
255
0
255
255
0
255
255
0
255
255
0
255
255
0
255
255
0
255
255
0
255
255
0
255
255
0
255
255
0
255
255
0
255
255
0
255
255
0
255
255
0
255
255
0
255
255
0
255
255
0
255
255
0
255
255
0
255
72
144
216
72
144
216
72
144
216
72
144
216
72
120
216
72
120
216
72
120
216
72
120
216
72
120
216
72
120
216
72
120
216
72
120
216
72
120
216
72
120
216
72
120
216
72
144
216
72
144
216
72
144
216
72
144
216
72
144
216
72
120
216
72
120
216
72
120
216
72
120
216
72
120
216
72
120
216
72
120
216
72
120
216
72
120
216
255
0
255
255
0
255
255
0
255
255
0
255
255
0
255
255
0
255
255
0
255
255
0
255
255
0
255
255
0
255
255
0
255
255
0
255
255
0
255
255
0
255
255
0
255
255
0
255
255
0
255
255
0
255
255
0
255
255
0
255
255
0
255
255
0
255
255
0
255
255
0
255
255
0
255
255
0
255
255
0
255
255
0
255
255
0
255
255
0
255
255
0
255
255
0
255
255
0
255
255
0
255
255
0
255
255
0
255
255
0
255
72
144
216
72
144
216
72
144
216
72
144
216
72
120
216
72
120
216
72
120
216
72
120
216
72
120
216
72
120
216
72
120
216
72
120
216
72
120
216
72
120
216
72
120
216
72
144
216
72
144
216
72
144
216
72
144
216
72
144
216
72
120
216
72
120
216
72
120
216
72
120
216
72
120
216
255
0
255
255
0
255
255
0
255
255
0
255
255
0
255
255
0
255
255
0
255
255
0
255
255
0
255
255
0
255
255
0
255
255
0
255
255
0
255
255
0
255
255
0
255
255
0
255
255
0
255
255
0
255
255
0
255
255
0
255
255
0
255
255
0
255
255
0
255
255
0
255
255
0
255
255
0
255
255
0
255
255
0
255
255
0
255
255
0
255
255
0
255
255
0
255
255
0
255
255
0
255
255
0
255
255
0
255
255
0
255
255
0
255
255
0
255
255
0
255
255
0
255
72
144
216
72
144
216
72
144
216
72
144
216
72
120
216
72
120
216
72
120
216
72
120
216
72
120
216
72
120
216
72
120
216
72
120
216
72
120
216
72
120
216
72
120
216
72
144
216
72
144
216
72
144
216
72
144
216
72
144
216
72
120
216
255
0
255
255
0
255
255
0
255
255
0
255
255
0
255
255
0
255
255
0
255
255
0
255
255
0
255
255
0
255
255
0
255
255
0
255
255
0
255
255
0
255
255
0
255
255
0
255
255
0
255
255
0
255
255
0
255
255
0
255
255
0
255
255
0
255
255
0
255
255
0
255
255
0
255
255
0
255
255
0
255
255
0
255
255
0
255
255
0
255
255
0
255
255
0
255
255
0
255
255
0
255
255
0
255
255
0
255
255
0
255
255
0
255
255
0
255
255
0
255
255
0
255
255
0
255
255
0
255
255
0
255
255
0
255
72
144
216
72
144
216
72
144
216
72
144
216
72
120
216
72
120
216
72
120
216
72
120
216
72
120
216
72
120
216
72
120
216
72
120
216
72
120
216
72
120
216
72
120
216
72
144
216
72
144
216
255
0
255
255
0
255
255
0
255
255
0
255
255
0
255
255
0
255
255
0
255
255
0
255
255
0
255
255
0
255
255
0
255
255
0
255
255
0
255
255
0
255
255
0
255
255
0
255
255
0
255
255
0
255
255
0
255
255
0
255
255
0
255
255
0
255
255
0
255
255
0
255
255
0
255
255
0
255
255
0
255
255
0
255
255
0
255
255
0
255
255
0
255
255
0
255
255
0
255
255
0
255
255
0
255
255
0
255
255
0
255
255
0
255
255
0
255
255
0
255
255
0
255
255
0
255
255
0
255
255
0
255
255
0
255
255
0
255
255
0
255
255
0
255
255
0
255
72
144
216
72
144
216
72
144
216
72
144
216
72
120
216
72
120
216
72
120
216
72
120
216
72
120
216
72
120
216
72
120
216
72
120
216
72
120
216
255
0
255
255
0
255
255
0
255
255
0
255
255
0
255
255
0
255
255
0
255
255
0
255
255
0
255
255
0
255
255
0
255
255
0
255
255
0
255
255
0
255
255
0
255
255
0
255
255
0
255
255
0
255
255
0
255
255
0
255
255
0
255
255
0
255
255
0
255
255
0
255
255
0
255
255
0
255
255
0
255
255
0
255
255
0
255
255
0
255
255
0
255
255
0
255
255
0
255
255
0
255
255
0
255
255
0
255
255
0
255
255
0
255
255
0
255
255
0
255
255
0
255
255
0
255
255
0
255
255
0
255
255
0
255
255
0
255
255
0
255
255
0
255
255
0
255
255
0
255
255
0
255
255
0
255
255
0
255
72
144
216
72
144
216
72
144
216
72
144
216
72
120
216
72
120
216
72
120
216
72
120
216
72
120
216
255
0
255
255
0
255
255
0
255
255
0
255
255
0
255
255
0
255
255
0
255
255
0
255
255
0
255
255
0
255
255
0
255
255
0
255
255
0
255
255
0
255
255
0
255
255
0
255
255
0
255
255
0
255
255
0
255
255
0
255
255
0
255
255
0
255
255
0
255
255
0
255
255
0
255
255
0
255
255
0
255
255
0
255
255
0
255
255
0
255
255
0
255
255
0
255
255
0
255
255
0
255
255
0
255
255
0
255
255
0
255
255
0
255
255
0
255
255
0
255
255
0
255
255
0
255
255
0
255
255
0
255
255
0
255
255
0
255
255
0
255
255
0
255
255
0
255
255
0
255
255
0
255
255
0
255
255
0
255
255
0
255
255
0
255
255
0
255
255
0
255
72
144
216
72
144
216
72
144
216
72
144
216
72
120
216
255
0
255
255
0
255
255
0
255
255
0
255
255
0
255
255
0
255
255
0
255
255
0
255
255
0
255
255
0
255
255
0
255
255
0
255
255
0
255
255
0
255
255
0
255
255
0
255
255
0
255
255
0
255
255
0
255
255
0
255
255
0
255
255
0
255
255
0
255
255
0
255
255
0
255
255
0
255
255
0
255
255
0
255
255
0
255
255
0
255
255
0
255
255
0
255
255
0
255
255
0
255
255
0
255
255
0
255
255
0
255
255
0
255
255
0
255
255
0
255
255
0
255
255
0
255
255
0
255
255
0
255
255
0
255
255
0
255
255
0
255
255
0
255
255
0
255
255
0
255
255
0
255
255
0
255
255
0
255
255
0
255
255
0
255
255
0
255
255
0
255
255
0
255
255
0
255
255
0
255
255
0
255
72
144
216
255
0
255
255
0
255
255
0
255
255
0
255
255
0
255
255
0
255
255
0
255
255
0
255
255
0
255
255
0
255
255
0
255
255
0
255
255
0
255
255
0
255
255
0
255
255
0
255
255
0
255
255
0
255
255
0
255
255
0
255
255
0
255
255
0
255
255
0
255
255
0
255
255
0
255
255
0
255
255
0
255
255
0
255
255
0
255
255
0
255
255
0
255
255
0
255
