P3
# CREATOR
64
32
255
255
0
255
255
0
255
255
0
255
255
0
255
255
0
255
255
0
255
255
0
255
255
0
255
255
0
255
255
0
255
255
0
255
255
0
255
255
0
255
255
0
255
255
0
255
255
0
255
255
0
255
255
0
255
255
0
255
255
0
255
255
0
255
255
0
255
255
0
255
255
0
255
255
0
255
255
0
255
255
0
255
255
0
255
255
0
255
255
0
255
255
0
255
102
128
102
102
85
102
255
0
255
255
0
255
255
0
255
255
0
255
255
0
255
255
0
255
255
0
255
255
0
255
255
0
255
255
0
255
255
0
255
255
0
255
255
0
255
255
0
255
255
0
255
255
0
255
255
0
255
255
0
255
255
0
255
255
0
255
255
0
255
255
0
255
255
0
255
255
0
255
255
0
255
255
0
255
255
0
255
255
0
255
255
0
255
255
0
255
255
0
255
255
0
255
255
0
255
255
0
255
255
0
255
255
0
255
255
0
255
255
0
255
255
0
255
255
0
255
255
0
255
255
0
255
255
0
255
255
0
255
255
0
255
255
0
255
255
0
255
255
0
255
255
0
255
255
0
255
255
0
255
255
0
255
255
0
255
255
0
255
255
0
255
255
0
255
255
0
255
255
0
255
255
0
255
255
0
255
102
85
102
102
128
102
102
85
102
102
128
102
102
85
102
102
128
102
255
0
255
255
0
255
255
0
255
255
0
255
255
0
255
255
0
255
255
0
255
255
0
255
255
0
255
255
0
255
255
0
255
255
0
255
255
0
255
255
0
255
255
0
255
255
0
255
255
0
255
255
0
255
255
0
255
255
0
255
255
0
255
255
0
255
255
0
255
255
0
255
255
0
255
255
0
255
255
0
255
255
0
255
255
0
255
255
0
255
255
0
255
255
0
255
255
0
255
255
0
255
255
0
255
255
0
255
255
0
255
255
0
255
255
0
255
255
0
255
255
0
255
255
0
255
255
0
255
255
0
255
255
0
255
255
0
255
255
0
255
255
0
255
255
0
255
255
0
255
255
0
255
255
0
255
255
0
255
255
0
255
255
0
255
255
0
255
102
128
102
102
85
102
102
128
102
102
85
102
153
128
153
102
85
102
102
128
102
102
85
102
102
128
102
102
85
102
255
0
255
255
0
255
255
0
255
255
0
255
255
0
255
255
0
255
255
0
255
255
0
255
255
0
255
255
0
255
255
0
255
255
0
255
255
0
255
255
0
255
255
0
255
255
0
255
255
0
255
255
0
255
255
0
255
255
0
255
255
0
255
255
0
255
255
0
255
255
0
255
255
0
255
255
0
255
255
0
255
255
0
255
255
0
255
255
0
255
255
0
255
255
0
255
255
0
255
255
0
255
255
0
255
255
0
255
255
0
255
255
0
255
255
0
255
255
0
255
255
0
255
255
0
255
255
0
255
255
0
255
255
0
255
255
0
255
255
0
255
255
0
255
255
0
255
255
0
255
255
0
255
255
0
255
102
85
102
102
128
102
102
85
102
102
128
102
102
85
102
102
128
102
102
128
102
102
85
102
153
128
153
102
85
102
102
128
102
102
85
102
102
128
102
102
85
102
255
0
255
255
0
255
255
0
255
255
0
255
255
0
255
255
0
255
255
0
255
255
0
255
255
0
255
255
0
255
255
0
255
255
0
255
255
0
255
255
0
255
255
0
255
255
0
255
255
0
255
255
0
255
255
0
255
255
0
255
255
0
255
255
0
255
255
0
255
255
0
255
255
0
255
255
0
255
255
0
255
255
0
255
255
0
255
255
0
255
255
0
255
255
0
255
255
0
255
255
0
255
255
0
255
255
0
255
255
0
255
255
0
255
255
0
255
255
0
255
255
0
255
255
0
255
255
0
255
255
0
255
255
0
255
255
0
255
255
0
255
255
0
255
102
85
102
102
128
102
102
128
102
102
85
102
102
128
102
102
85
102
153
128
153
102
85
102
102
128
102
102
85
102
102
128
102
102
128
102
102
85
102
102
128
102
102
85
102
102
128
102
102
128
102
102
85
102
255
0
255
255
0
255
255
0
255
255
0
255
255
0
255
255
0
255
255
0
255
255
0
255
255
0
255
255
0
255
255
0
255
255
0
255
255
0
255
255
0
255
255
0
255
255
0
255
255
0
255
255
0
255
255
0
255
255
0
255
255
0
255
255
0
255
255
0
255
255
0
255
255
0
255
255
0
255
255
0
255
255
0
255
255
0
255
255
0
255
255
0
255
255
0
255
255
0
255
255
0
255
255
0
255
255
0
255
255
0
255
255
0
255
255
0
255
255
0
255
255
0
255
255
0
255
255
0
255
255
0
255
102
85
102
102
128
102
102
85
102
102
128
102
153
85
153
102
128
102
102
85
102
102
128
102
102
128
102
102
85
102
102
128
102
102
85
102
102
128
102
153
85
153
102
128
102
102
85
102
102
128
102
102
85
102
102
85
102
102
128
102
102
85
102
102
85
102
255
0
255
255
0
255
255
0
255
255
0
255
255
0
255
255
0
255
255
0
255
255
0
255
255
0
255
255
0
255
255
0
255
255
0
255
255
0
255
255
0
255
255
0
255
255
0
255
255
0
255
255
0
255
255
0
255
255
0
255
255
0
255
255
0
255
255
0
255
255
0
255
255
0
255
255
0
255
255
0
255
255
0
255
255
0
255
255
0
255
255
0
255
255
0
255
255
0
255
255
0
255
255
0
255
255
0
255
255
0
255
255
0
255
255
0
255
255
0
255
102
128
102
102
85
102
102
128
102
102
85
102
102
128
102
102
128
102
102
85
102
102
128
102
153
85
153
102
128
102
102
85
102
102
128
102
153
85
153
102
128
102
102
85
102
102
128
102
102
85
102
102
128
102
102
85
102
102
85
102
102
128
102
102
85
102
102
85
102
102
128
102
102
128
102
102
85
102
255
0
255
255
0
255
255
0
255
255
0
255
255
0
255
255
0
255
255
0
255
255
0
255
255
0
255
255
0
255
255
0
255
255
0
255
255
0
255
255
0
255
255
0
255
255
0
255
255
0
255
255
0
255
255
0
255
255
0
255
255
0
255
255
0
255
255
0
255
255
0
255
255
0
255
255
0
255
255
0
255
255
0
255
255
0
255
255
0
255
255
0
255
255
0
255
255
0
255
255
0
255
255
0
255
255
0
255
102
85
102
102
128
102
102
85
102
102
128
102
102
85
102
153
128
153
102
85
102
102
128
102
102
85
102
102
128
102
102
128
102
102
85
102
102
128
102
102
85
102
102
128
102
102
85
102
102
128
102
102
85
102
102
85
102
102
85
102
102
128
102
102
85
102
102
128
102
102
85
102
102
128
102
102
85
102
102
85
102
204
170
204
153
170
153
153
170
153
255
0
255
255
0
255
255
0
255
255
0
255
255
0
255
255
0
255
255
0
255
255
0
255
255
0
255
255
0
255
255
0
255
255
0
255
255
0
255
255
0
255
255
0
255
255
0
255
255
0
255
255
0
255
255
0
255
255
0
255
255
0
255
255
0
255
255
0
255
255
0
255
255
0
255
255
0
255
255
0
255
255
0
255
255
0
255
255
0
255
255
0
255
255
0
255
102
128
102
102
85
102
102
128
102
102
85
102
102
128
102
102
85
102
102
128
102
102
85
102
102
128
102
153
85
153
102
128
102
102
85
102
102
128
102
102
85
102
102
128
102
102
85
102
102
128
102
102
85
102
102
85
102
102
128
102
102
85
102
102
128
102
102
85
102
102
128
102
102
85
102
102
85
102
102
128
102
204
170
204
153
170
153
153
170
153
204
170
204
153
170
153
204
170
204
153
170
153
255
0
255
255
0
255
255
0
255
255
0
255
255
0
255
255
0
255
255
0
255
255
0
255
255
0
255
255
0
255
255
0
255
255
0
255
255
0
255
255
0
255
255
0
255
255
0
255
255
0
255
255
0
255
255
0
255
255
0
255
255
0
255
255
0
255
255
0
255
255
0
255
255
0
255
255
0
255
255
0
255
255
0
255
102
85
102
102
128
102
102
85
102
102
128
102
153
85
153
102
128
102
102
85
102
153
128
153
102
85
102
102
128
102
102
85
102
102
128
102
102
85
102
102
128
102
153
85
153
102
128
102
102
85
102
102
128
102
102
85
102
102
128
102
102
85
102
102
85
102
102
128
102
102
85
102
102
128
102
102
85
102
102
128
102
102
128
102
102
85
102
102
128
102
153
170
153
204
170
204
153
170
153
153
170
153
153
170
153
204
170
204
102
85
102
102
128
102
255
0
255
255
0
255
255
0
255
255
0
255
255
0
255
255
0
255
255
0
255
255
0
255
255
0
255
255
0
255
255
0
255
255
0
255
255
0
255
255
0
255
255
0
255
255
0
255
255
0
255
255
0
255
255
0
255
255
0
255
255
0
255
255
0
255
255
0
255
255
0
255
102
128
102
102
85
102
102
128
102
102
85
102
102
128
102
102
85
102
102
128
102
102
85
102
102
128
102
102
128
102
102
85
102
102
128
102
102
128
102
102
85
102
102
128
102
102
85
102
102
128
102
102
85
102
102
128
102
102
85
102
102
85
102
102
85
102
102
128
102
102
128
102
102
85
102
102
128
102
153
85
153
102
128
102
102
85
102
153
128
153
102
85
102
102
128
102
102
85
102
102
128
102
153
170
153
204
170
204
102
85
102
102
128
102
102
85
102
102
128
102
102
85
102
102
85
102
255
0
255
255
0
255
255
0
255
255
0
255
255
0
255
255
0
255
255
0
255
255
0
255
255
0
255
255
0
255
255
0
255
255
0
255
255
0
255
255
0
255
255
0
255
255
0
255
255
0
255
255
0
255
255
0
255
255
0
255
102
85
102
102
85
102
102
128
102
102
85
102
102
128
102
153
85
153
102
128
102
102
128
102
102
85
102
102
128
102
102
85
102
102
128
102
102
85
102
102
128
102
102
85
102
102
128
102
102
85
102
102
128
102
102
85
102
102
85
102
102
85
102
102
128
102
102
85
102
102
128
102
102
85
102
102
85
102
102
128
102
102
85
102
102
128
102
102
85
102
102
128
102
102
85
102
102
128
102
102
85
102
102
128
102
102
85
102
102
128
102
102
85
102
102
128
102
102
85
102
102
128
102
102
85
102
102
128
102
102
85
102
102
128
102
102
85
102
255
0
255
255
0
255
255
0
255
255
0
255
255
0
255
255
0
255
255
0
255
255
0
255
255
0
255
255
0
255
255
0
255
255
0
255
255
0
255
255
0
255
255
0
255
255
0
255
102
85
102
102
85
102
102
128
102
102
128
102
102
128
102
102
85
102
102
128
102
102
85
102
102
128
102
153
85
153
102
128
102
102
85
102
153
128
153
102
85
102
102
128
102
153
85
153
102
128
102
102
85
102
102
85
102
102
85
102
102
128
102
102
85
102
102
128
102
102
85
102
102
128
102
102
85
102
102
128
102
153
170
153
204
170
204
102
85
102
102
128
102
102
85
102
102
128
102
102
128
102
102
85
102
102
128
102
153
128
153
102
85
102
102
128
102
102
85
102
102
128
102
102
85
102
102
128
102
102
85
102
102
85
102
102
128
102
102
85
102
102
85
102
102
128
102
102
85
102
255
0
255
255
0
255
255
0
255
255
0
255
255
0
255
255
0
255
255
0
255
255
0
255
255
0
255
255
0
255
255
0
255
255
0
255
102
85
102
102
128
102
102
128
102
102
128
102
102
85
102
102
85
102
153
128
153
102
85
102
102
128
102
102
128
102
102
85
102
102
128
102
102
85
102
102
128
102
102
85
102
102
128
102
102
85
102
102
85
102
102
128
102
102
85
102
102
128
102
102
85
102
102
85
102
102
128
102
102
85
102
102
128
102
153
85
153
153
170
153
204
170
204
153
170
153
204
170
204
153
170
153
204
170
204
102
128
102
153
85
153
102
128
102
102
85
102
102
128
102
102
85
102
102
128
102
102
85
102
102
128
102
102
85
102
102
85
102
102
85
102
102
128
102
102
85
102
102
85
102
102
128
102
102
128
102
102
85
102
102
128
102
102
85
102
102
128
102
255
0
255
255
0
255
255
0
255
255
0
255
255
0
255
255
0
255
255
0
255
255
0
255
102
85
102
102
128
102
102
85
102
102
128
102
102
85
102
153
85
153
102
128
102
102
128
102
102
85
102
102
128
102
153
85
153
102
128
102
102
85
102
102
128
102
102
85
102
102
128
102
102
128
102
102
85
102
102
85
102
102
128
102
102
85
102
102
128
102
102
85
102
102
128
102
102
128
102
102
85
102
153
128
153
153
170
153
153
170
153
204
170
204
153
170
153
153
170
153
153
170
153
204
170
204
153
170
153
153
170
153
102
128
102
102
85
102
102
128
102
102
85
102
102
128
102
102
85
102
102
85
102
102
85
102
102
128
102
102
85
102
102
128
102
102
128
102
102
85
102
102
128
102
102
128
102
102
85
102
102
128
102
102
85
102
102
128
102
102
85
102
102
128
102
102
85
102
255
0
255
255
0
255
255
0
255
255
0
255
102
85
102
102
128
102
102
85
102
102
128
102
102
85
102
102
128
102
102
128
102
102
85
102
102
128
102
102
85
102
102
128
102
102
85
102
102
128
102
102
85
102
102
128
102
102
85
102
102
128
102
102
85
102
102
85
102
102
128
102
102
85
102
102
85
102
102
128
102
102
85
102
102
128
102
102
85
102
102
85
102
204
170
204
153
170
153
153
170
153
204
170
204
153
170
153
153
170
153
204
170
204
153
170
153
153
170
153
102
85
102
102
128
102
102
85
102
102
128
102
153
85
153
102
85
102
102
128
102
102
85
102
102
128
102
102
85
102
102
85
102
102
128
102
102
85
102
102
85
102
102
128
102
102
85
102
153
128
153
102
85
102
102
128
102
153
128
153
102
85
102
102
128
102
102
85
102
102
128
102
102
85
102
102
128
102
255
0
255
255
0
255
102
85
102
102
128
102
102
128
102
102
85
102
153
128
153
102
85
102
102
128
102
102
85
102
153
128
153
102
85
102
102
128
102
102
85
102
102
128
102
102
85
102
153
128
153
102
85
102
102
85
102
102
128
102
102
85
102
102
128
102
102
85
102
102
128
102
102
85
102
102
128
102
102
85
102
153
170
153
204
170
204
153
170
153
153
170
153
204
170
204
153
170
153
153
170
153
204
170
204
153
170
153
102
85
102
102
128
102
102
85
102
153
128
153
102
85
102
102
128
102
102
85
102
102
128
102
102
85
102
102
85
102
102
128
102
102
85
102
102
128
102
102
85
102
102
128
102
102
128
102
153
85
153
102
128
102
102
85
102
102
128
102
102
85
102
102
128
102
102
85
102
102
128
102
153
85
153
102
128
102
102
128
102
102
85
102
255
0
255
255
0
255
255
0
255
255
0
255
102
85
102
102
128
102
102
85
102
102
128
102
102
85
102
102
128
102
102
85
102
102
128
102
102
85
102
153
128
153
102
85
102
102
128
102
102
85
102
102
128
102
102
85
102
102
85
102
102
85
102
102
85
102
102
128
102
102
85
102
102
128
102
102
85
102
153
128
153
102
128
102
153
170
153
153
170
153
204
170
204
153
170
153
153
170
153
204
170
204
102
128
102
102
85
102
102
128
102
102
85
102
102
128
102
102
85
102
102
85
102
102
85
102
102
128
102
102
85
102
102
128
102
102
85
102
102
128
102
102
85
102
102
128
102
153
85
153
102
128
102
102
85
102
102
128
102
102
85
102
102
128
102
102
85
102
153
128
153
102
85
102
102
128
102
102
85
102
102
128
102
102
85
102
255
0
255
255
0
255
255
0
255
255
0
255
255
0
255
255
0
255
255
0
255
255
0
255
102
128
102
102
85
102
153
128
153
102
85
102
102
128
102
102
128
102
102
85
102
102
128
102
102
85
102
102
85
102
102
128
102
102
85
102
102
85
102
102
128
102
102
128
102
102
85
102
102
128
102
153
85
153
102
128
102
102
85
102
102
128
102
102
85
102
102
85
102
102
128
102
153
170
153
204
170
204
102
85
102
102
128
102
102
85
102
102
128
102
102
85
102
102
128
102
102
85
102
102
85
102
102
128
102
102
85
102
102
128
102
102
85
102
102
85
102
102
128
102
153
85
153
102
128
102
102
85
102
102
128
102
102
128
102
102
85
102
102
128
102
102
85
102
102
128
102
102
128
102
102
85
102
102
128
102
102
85
102
102
128
102
255
0
255
255
0
255
255
0
255
255
0
255
255
0
255
255
0
255
255
0
255
255
0
255
255
0
255
255
0
255
255
0
255
255
0
255
102
128
102
102
85
102
102
85
102
102
85
102
102
128
102
102
85
102
102
128
102
102
85
102
102
128
102
102
85
102
102
128
102
102
85
102
102
128
102
102
128
102
102
85
102
102
128
102
102
85
102
102
128
102
102
85
102
102
128
102
153
128
153
102
85
102
102
128
102
102
85
102
102
128
102
102
85
102
102
128
102
102
85
102
102
128
102
102
85
102
102
85
102
102
128
102
102
85
102
102
128
102
102
85
102
102
128
102
102
128
102
102
85
102
102
128
102
102
128
102
102
85
102
102
128
102
153
85
153
102
128
102
102
85
102
153
128
153
102
85
102
102
128
102
102
85
102
102
128
102
255
0
255
255
0
255
255
0
255
255
0
255
255
0
255
255
0
255
255
0
255
255
0
255
255
0
255
255
0
255
255
0
255
255
0
255
255
0
255
255
0
255
255
0
255
255
0
255
102
85
102
102
128
102
102
85
102
102
85
102
102
128
102
102
85
102
102
85
102
102
128
102
102
85
102
204
170
204
102
128
102
153
85
153
102
128
102
102
85
102
102
128
102
102
128
102
153
85
153
102
128
102
102
85
102
102
128
102
102
85
102
102
128
102
102
85
102
102
128
102
102
85
102
102
85
102
102
85
102
102
85
102
102
128
102
102
85
102
102
128
102
102
85
102
102
128
102
102
85
102
102
128
102
102
85
102
102
128
102
102
85
102
153
128
153
102
85
102
102
128
102
102
85
102
102
128
102
102
128
102
102
85
102
102
128
102
255
0
255
255
0
255
255
0
255
255
0
255
255
0
255
255
0
255
255
0
255
255
0
255
255
0
255
255
0
255
255
0
255
255
0
255
255
0
255
255
0
255
255
0
255
255
0
255
255
0
255
255
0
255
255
0
255
255
0
255
102
85
102
102
128
102
102
85
102
102
128
102
102
128
102
204
170
204
153
170
153
153
170
153
153
170
153
204
170
204
102
85
102
102
128
102
153
85
153
102
128
102
102
85
102
102
128
102
102
85
102
102
128
102
102
85
102
102
85
102
102
128
102
102
85
102
102
128
102
102
85
102
102
128
102
102
128
102
102
85
102
102
128
102
102
85
102
102
128
102
153
85
153
102
128
102
102
85
102
153
128
153
102
85
102
102
128
102
102
85
102
102
128
102
102
85
102
102
128
102
153
85
153
102
128
102
255
0
255
255
0
255
255
0
255
255
0
255
255
0
255
255
0
255
255
0
255
255
0
255
255
0
255
255
0
255
255
0
255
255
0
255
255
0
255
255
0
255
255
0
255
255
0
255
255
0
255
255
0
255
255
0
255
255
0
255
255
0
255
255
0
255
255
0
255
255
0
255
102
85
102
153
170
153
204
170
204
153
170
153
153
170
153
204
170
204
153
170
153
153
170
153
204
170
204
153
170
153
102
128
102
102
85
102
102
128
102
102
85
102
102
128
102
102
85
102
102
85
102
102
128
102
102
85
102
102
85
102
102
85
102
102
128
102
102
85
102
102
85
102
102
128
102
102
85
102
153
128
153
102
85
102
102
128
102
102
85
102
102
128
102
102
85
102
102
128
102
102
85
102
102
128
102
102
128
102
102
85
102
102
128
102
255
0
255
255
0
255
255
0
255
255
0
255
255
0
255
255
0
255
255
0
255
255
0
255
255
0
255
255
0
255
255
0
255
255
0
255
255
0
255
255
0
255
255
0
255
255
0
255
255
0
255
255
0
255
255
0
255
255
0
255
255
0
255
255
0
255
255
0
255
255
0
255
255
0
255
255
0
255
255
0
255
255
0
255
153
170
153
153
170
153
204
170
204
153
170
153
153
170
153
204
170
204
102
128
102
102
85
102
102
128
102
102
85
102
102
128
102
102
85
102
102
128
102
102
85
102
102
128
102
102
85
102
102
128
102
102
85
102
102
128
102
102
85
102
102
128
102
153
128
153
102
85
102
102
128
102
102
128
102
102
85
102
102
128
102
102
128
102
153
85
153
102
128
102
102
128
102
102
85
102
153
128
153
102
85
102
255
0
255
255
0
255
255
0
255
255
0
255
255
0
255
255
0
255
255
0
255
255
0
255
255
0
255
255
0
255
255
0
255
255
0
255
255
0
255
255
0
255
255
0
255
255
0
255
255
0
255
255
0
255
255
0
255
255
0
255
255
0
255
255
0
255
255
0
255
255
0
255
255
0
255
255
0
255
255
0
255
255
0
255
255
0
255
255
0
255
255
0
255
255
0
255
153
170
153
204
170
204
102
85
102
102
128
102
102
85
102
102
128
102
102
85
102
102
128
102
102
85
102
102
128
102
102
85
102
102
85
102
102
128
102
102
85
102
102
128
102
102
85
102
153
128
153
102
128
102
102
85
102
102
128
102
102
85
102
102
128
102
102
85
102
102
128
102
102
85
102
102
128
102
102
85
102
102
128
102
102
85
102
102
128
102
255
0
255
255
0
255
255
0
255
255
0
255
255
0
255
255
0
255
255
0
255
255
0
255
255
0
255
255
0
255
255
0
255
255
0
255
255
0
255
255
0
255
255
0
255
255
0
255
255
0
255
255
0
255
255
0
255
255
0
255
255
0
255
255
0
255
255
0
255
255
0
255
255
0
255
255
0
255
255
0
255
255
0
255
255
0
255
255
0
255
255
0
255
255
0
255
255
0
255
255
0
255
255
0
255
255
0
255
102
128
102
102
85
102
102
85
102
102
85
102
102
85
102
102
85
102
102
85
102
102
85
102
102
128
102
102
85
102
102
85
102
102
128
102
102
85
102
102
128
102
102
85
102
102
128
102
102
85
102
102
128
102
153
85
153
102
128
102
102
85
102
153
128
153
102
85
102
102
128
102
102
85
102
102
128
102
255
0
255
255
0
255
255
0
255
255
0
255
255
0
255
255
0
255
255
0
255
255
0
255
255
0
255
255
0
255
255
0
255
255
0
255
255
0
255
255
0
255
255
0
255
255
0
255
255
0
255
255
0
255
255
0
255
255
0
255
255
0
255
255
0
255
255
0
255
255
0
255
255
0
255
255
0
255
255
0
255
255
0
255
255
0
255
255
0
255
255
0
255
255
0
255
255
0
255
255
0
255
255
0
255
255
0
255
255
0
255
255
0
255
255
0
255
255
0
255
102
85
102
102
128
102
102
128
102
102
85
102
102
128
102
102
128
102
153
85
153
102
128
102
102
128
102
102
85
102
102
128
102
102
85
102
102
128
102
153
85
153
102
128
102
102
85
102
102
128
102
102
85
102
102
128
102
102
128
102
102
85
102
102
128
102
255
0
255
255
0
255
255
0
255
255
0
255
255
0
255
255
0
255
255
0
255
255
0
255
255
0
255
255
0
255
255
0
255
255
0
255
255
0
255
255
0
255
255
0
255
255
0
255
255
0
255
255
0
255
255
0
255
255
0
255
255
0
255
255
0
255
255
0
255
255
0
255
255
0
255
255
0
255
255
0
255
255
0
255
255
0
255
255
0
255
255
0
255
255
0
255
255
0
255
255
0
255
255
0
255
255
0
255
255
0
255
255
0
255
255
0
255
255
0
255
255
0
255
255
0
255
255
0
255
255
0
255
102
85
102
102
128
102
102
85
102
102
128
102
102
85
102
102
128
102
153
85
153
102
128
102
102
128
102
102
85
102
102
128
102
102
128
102
102
85
102
102
128
102
102
128
102
102
85
102
153
128
153
102
85
102
255
0
255
255
0
255
255
0
255
255
0
255
255
0
255
255
0
255
255
0
255
255
0
255
255
0
255
255
0
255
255
0
255
255
0
255
255
0
255
255
0
255
255
0
255
255
0
255
255
0
255
255
0
255
255
0
255
255
0
255
255
0
255
255
0
255
255
0
255
255
0
255
255
0
255
255
0
255
255
0
255
255
0
255
255
0
255
255
0
255
255
0
255
255
0
255
255
0
255
255
0
255
255
0
255
255
0
255
255
0
255
255
0
255
255
0
255
255
0
255
255
0
255
255
0
255
255
0
255
255
0
255
255
0
255
255
0
255
255
0
255
255
0
255
102
85
102
102
128
102
102
85
102
102
128
102
102
85
102
102
128
102
102
85
102
153
128
153
102
85
102
102
128
102
102
85
102
153
128
153
102
85
102
102
128
102
255
0
255
255
0
255
255
0
255
255
0
255
255
0
255
255
0
255
255
0
255
255
0
255
255
0
255
255
0
255
255
0
255
255
0
255
255
0
255
255
0
255
255
0
255
255
0
255
255
0
255
255
0
255
255
0
255
255
0
255
255
0
255
255
0
255
255
0
255
255
0
255
255
0
255
255
0
255
255
0
255
255
0
255
255
0
255
255
0
255
255
0
255
255
0
255
255
0
255
255
0
255
255
0
255
255
0
255
255
0
255
255
0
255
255
0
255
255
0
255
255
0
255
255
0
255
255
0
255
255
0
255
255
0
255
255
0
255
255
0
255
255
0
255
255
0
255
255
0
255
255
0
255
255
0
255
102
128
102
102
85
102
102
128
102
102
85
102
102
128
102
102
85
102
102
128
102
102
85
102
102
128
102
102
85
102
255
0
255
255
0
255
255
0
255
255
0
255
255
0
255
255
0
255
255
0
255
255
0
255
255
0
255
255
0
255
255
0
255
255
0
255
255
0
255
255
0
255
255
0
255
255
0
255
255
0
255
255
0
255
255
0
255
255
0
255
255
0
255
255
0
255
255
0
255
255
0
255
255
0
255
255
0
255
255
0
255
255
0
255
255
0
255
255
0
255
255
0
255
255
0
255
255
0
255
255
0
255
255
0
255
255
0
255
255
0
255
255
0
255
255
0
255
255
0
255
255
0
255
255
0
255
255
0
255
255
0
255
255
0
255
255
0
255
255
0
255
255
0
255
255
0
255
255
0
255
255
0
255
255
0
255
255
0
255
255
0
255
255
0
255
255
0
255
102
128
102
102
128
102
153
85
153
102
128
102
102
85
102
102
128
102
255
0
255
255
0
255
255
0
255
255
0
255
255
0
255
255
0
255
255
0
255
255
0
255
255
0
255
255
0
255
255
0
255
255
0
255
255
0
255
255
0
255
255
0
255
255
0
255
255
0
255
255
0
255
255
0
255
255
0
255
255
0
255
255
0
255
255
0
255
255
0
255
255
0
255
255
0
255
255
0
255
255
0
255
255
0
255
255
0
255
255
0
255
255
0
255
255
0
255
255
0
255
255
0
255
255
0
255
255
0
255
255
0
255
255
0
255
255
0
255
255
0
255
255
0
255
255
0
255
255
0
255
255
0
255
255
0
255
255
0
255
255
0
255
255
0
255
255
0
255
255
0
255
255
0
255
255
0
255
255
0
255
255
0
255
255
0
255
255
0
255
255
0
255
255
0
255
255
0
255
102
128
102
102
85
102
255
0
255
255
0
255
255
0
255
255
0
255
255
0
255
255
0
255
255
0
255
255
0
255
255
0
255
255
0
255
255
0
255
255
0
255
255
0
255
255
0
255
255
0
255
255
0
255
255
0
255
255
0
255
255
0
255
255
0
255
255
0
255
255
0
255
255
0
255
255
0
255
255
0
255
255
0
255
255
0
255
255
0
255
255
0
255
255
0
255
255
0
255
