P3
# CREATOR 
64
32
255
255
0
255
255
0
255
255
0
255
255
0
255
255
0
255
255
0
255
255
0
255
255
0
255
255
0
255
255
0
255
255
0
255
255
0
255
255
0
255
255
0
255
255
0
255
255
0
255
255
0
255
255
0
255
255
0
255
255
0
255
255
0
255
255
0
255
255
0
255
255
0
255
255
0
255
255
0
255
255
0
255
255
0
255
255
0
255
255
0
255
255
0
255
34
177
76
34
177
76
34
177
76
255
0
255
255
0
255
255
0
255
255
0
255
255
0
255
255
0
255
255
0
255
255
0
255
255
0
255
255
0
255
255
0
255
255
0
255
255
0
255
255
0
255
255
0
255
255
0
255
255
0
255
255
0
255
255
0
255
255
0
255
255
0
255
255
0
255
255
0
255
255
0
255
255
0
255
255
0
255
255
0
255
255
0
255
255
0
255
255
0
255
255
0
255
255
0
255
255
0
255
255
0
255
255
0
255
255
0
255
255
0
255
255
0
255
255
0
255
255
0
255
255
0
255
255
0
255
255
0
255
255
0
255
255
0
255
255
0
255
255
0
255
255
0
255
255
0
255
255
0
255
255
0
255
255
0
255
255
0
255
255
0
255
255
0
255
255
0
255
255
0
255
255
0
255
34
177
76
34
177
76
34
177
76
181
230
29
181
230
29
181
230
29
34
177
76
34
177
76
255
0
255
255
0
255
255
0
255
255
0
255
255
0
255
255
0
255
255
0
255
255
0
255
255
0
255
255
0
255
255
0
255
255
0
255
255
0
255
255
0
255
255
0
255
255
0
255
255
0
255
255
0
255
255
0
255
255
0
255
255
0
255
255
0
255
255
0
255
255
0
255
255
0
255
255
0
255
255
0
255
255
0
255
255
0
255
255
0
255
255
0
255
255
0
255
255
0
255
255
0
255
255
0
255
255
0
255
255
0
255
255
0
255
255
0
255
255
0
255
255
0
255
255
0
255
255
0
255
255
0
255
255
0
255
255
0
255
255
0
255
255
0
255
255
0
255
255
0
255
255
0
255
255
0
255
255
0
255
255
0
255
34
177
76
34
177
76
181
230
29
181
230
29
181
230
29
181
230
29
181
230
29
181
230
29
181
230
29
181
230
29
34
177
76
34
177
76
255
0
255
255
0
255
255
0
255
255
0
255
255
0
255
255
0
255
255
0
255
255
0
255
255
0
255
255
0
255
255
0
255
255
0
255
255
0
255
255
0
255
255
0
255
255
0
255
255
0
255
255
0
255
255
0
255
255
0
255
255
0
255
255
0
255
255
0
255
255
0
255
255
0
255
255
0
255
255
0
255
255
0
255
255
0
255
255
0
255
255
0
255
255
0
255
255
0
255
255
0
255
255
0
255
255
0
255
255
0
255
255
0
255
255
0
255
255
0
255
255
0
255
255
0
255
255
0
255
255
0
255
255
0
255
255
0
255
255
0
255
255
0
255
255
0
255
255
0
255
34
177
76
34
177
76
181
230
29
181
230
29
34
177
76
181
230
29
181
230
29
34
177
76
181
230
29
181
230
29
181
230
29
181
230
29
181
230
29
181
230
29
34
177
76
34
177
76
255
0
255
255
0
255
255
0
255
255
0
255
255
0
255
255
0
255
255
0
255
255
0
255
255
0
255
255
0
255
255
0
255
255
0
255
255
0
255
255
0
255
255
0
255
255
0
255
255
0
255
255
0
255
255
0
255
255
0
255
255
0
255
255
0
255
255
0
255
255
0
255
255
0
255
255
0
255
255
0
255
255
0
255
255
0
255
255
0
255
255
0
255
255
0
255
255
0
255
255
0
255
255
0
255
255
0
255
255
0
255
255
0
255
255
0
255
255
0
255
255
0
255
255
0
255
255
0
255
255
0
255
255
0
255
255
0
255
34
177
76
34
177
76
181
230
29
181
230
29
181
230
29
181
230
29
34
177
76
34
177
76
181
230
29
181
230
29
181
230
29
181
230
29
34
177
76
34
177
76
181
230
29
34
177
76
34
177
76
181
230
29
34
177
76
34
177
76
255
0
255
255
0
255
255
0
255
255
0
255
255
0
255
255
0
255
255
0
255
255
0
255
255
0
255
255
0
255
255
0
255
255
0
255
255
0
255
255
0
255
255
0
255
255
0
255
255
0
255
255
0
255
255
0
255
255
0
255
255
0
255
255
0
255
255
0
255
255
0
255
255
0
255
255
0
255
255
0
255
255
0
255
255
0
255
255
0
255
255
0
255
255
0
255
255
0
255
255
0
255
255
0
255
255
0
255
255
0
255
255
0
255
255
0
255
255
0
255
255
0
255
255
0
255
34
177
76
34
177
76
181
230
29
181
230
29
181
230
29
181
230
29
181
230
29
181
230
29
181
230
29
181
230
29
181
230
29
181
230
29
181
230
29
181
230
29
34
177
76
181
230
29
34
177
76
181
230
29
181
230
29
181
230
29
181
230
29
181
230
29
34
177
76
34
177
76
255
0
255
255
0
255
255
0
255
255
0
255
255
0
255
255
0
255
255
0
255
255
0
255
255
0
255
255
0
255
255
0
255
255
0
255
255
0
255
255
0
255
255
0
255
255
0
255
255
0
255
255
0
255
255
0
255
255
0
255
255
0
255
255
0
255
255
0
255
255
0
255
255
0
255
255
0
255
255
0
255
255
0
255
255
0
255
255
0
255
255
0
255
255
0
255
255
0
255
255
0
255
255
0
255
255
0
255
255
0
255
255
0
255
34
177
76
34
177
76
181
230
29
181
230
29
181
230
29
181
230
29
181
230
29
181
230
29
181
230
29
181
230
29
181
230
29
181
230
29
181
230
29
181
230
29
181
230
29
181
230
29
181
230
29
34
177
76
181
230
29
181
230
29
181
230
29
181
230
29
181
230
29
181
230
29
181
230
29
181
230
29
34
177
76
34
177
76
255
0
255
255
0
255
255
0
255
255
0
255
255
0
255
255
0
255
255
0
255
255
0
255
255
0
255
255
0
255
255
0
255
255
0
255
255
0
255
255
0
255
255
0
255
255
0
255
255
0
255
255
0
255
255
0
255
255
0
255
255
0
255
255
0
255
255
0
255
255
0
255
255
0
255
255
0
255
255
0
255
255
0
255
255
0
255
255
0
255
255
0
255
255
0
255
255
0
255
255
0
255
34
177
76
34
177
76
181
230
29
181
230
29
181
230
29
181
230
29
34
177
76
181
230
29
181
230
29
181
230
29
181
230
29
181
230
29
181
230
29
181
230
29
34
177
76
181
230
29
181
230
29
181
230
29
181
230
29
181
230
29
34
177
76
181
230
29
181
230
29
181
230
29
181
230
29
181
230
29
181
230
29
181
230
29
181
230
29
181
230
29
34
177
76
34
177
76
255
0
255
255
0
255
255
0
255
255
0
255
255
0
255
255
0
255
255
0
255
255
0
255
255
0
255
255
0
255
255
0
255
255
0
255
255
0
255
255
0
255
255
0
255
255
0
255
255
0
255
255
0
255
255
0
255
255
0
255
255
0
255
255
0
255
255
0
255
255
0
255
255
0
255
255
0
255
255
0
255
255
0
255
255
0
255
255
0
255
34
177
76
34
177
76
181
230
29
181
230
29
34
177
76
181
230
29
34
177
76
181
230
29
181
230
29
181
230
29
181
230
29
181
230
29
181
230
29
181
230
29
181
230
29
181
230
29
181
230
29
181
230
29
181
230
29
181
230
29
34
177
76
34
177
76
181
230
29
181
230
29
34
177
76
181
230
29
181
230
29
34
177
76
181
230
29
181
230
29
181
230
29
181
230
29
181
230
29
181
230
29
34
177
76
34
177
76
255
0
255
255
0
255
255
0
255
255
0
255
255
0
255
255
0
255
255
0
255
255
0
255
255
0
255
255
0
255
255
0
255
255
0
255
255
0
255
255
0
255
255
0
255
255
0
255
255
0
255
255
0
255
255
0
255
255
0
255
255
0
255
255
0
255
255
0
255
255
0
255
255
0
255
255
0
255
34
177
76
34
177
76
181
230
29
181
230
29
34
177
76
181
230
29
181
230
29
181
230
29
181
230
29
181
230
29
181
230
29
181
230
29
181
230
29
181
230
29
181
230
29
181
230
29
181
230
29
34
177
76
181
230
29
181
230
29
181
230
29
181
230
29
181
230
29
181
230
29
181
230
29
181
230
29
181
230
29
181
230
29
181
230
29
181
230
29
181
230
29
181
230
29
181
230
29
181
230
29
181
230
29
181
230
29
181
230
29
181
230
29
34
177
76
34
177
76
255
0
255
255
0
255
255
0
255
255
0
255
255
0
255
255
0
255
255
0
255
255
0
255
255
0
255
255
0
255
255
0
255
255
0
255
255
0
255
255
0
255
255
0
255
255
0
255
255
0
255
255
0
255
255
0
255
255
0
255
255
0
255
255
0
255
34
177
76
34
177
76
181
230
29
181
230
29
181
230
29
181
230
29
181
230
29
34
177
76
181
230
29
181
230
29
34
177
76
181
230
29
34
177
76
34
177
76
34
177
76
181
230
29
34
177
76
181
230
29
34
177
76
181
230
29
34
177
76
34
177
76
181
230
29
34
177
76
181
230
29
181
230
29
181
230
29
181
230
29
34
177
76
181
230
29
181
230
29
181
230
29
181
230
29
181
230
29
181
230
29
181
230
29
181
230
29
181
230
29
181
230
29
181
230
29
34
177
76
181
230
29
34
177
76
34
177
76
255
0
255
255
0
255
255
0
255
255
0
255
255
0
255
255
0
255
255
0
255
255
0
255
255
0
255
255
0
255
255
0
255
255
0
255
255
0
255
255
0
255
255
0
255
255
0
255
255
0
255
255
0
255
34
177
76
34
177
76
181
230
29
181
230
29
181
230
29
181
230
29
181
230
29
181
230
29
181
230
29
181
230
29
181
230
29
34
177
76
181
230
29
181
230
29
34
177
76
181
230
29
181
230
29
34
177
76
181
230
29
34
177
76
34
177
76
181
230
29
181
230
29
34
177
76
34
177
76
34
177
76
181
230
29
181
230
29
181
230
29
181
230
29
181
230
29
34
177
76
181
230
29
181
230
29
34
177
76
181
230
29
181
230
29
181
230
29
34
177
76
181
230
29
181
230
29
181
230
29
181
230
29
181
230
29
181
230
29
181
230
29
34
177
76
34
177
76
255
0
255
255
0
255
255
0
255
255
0
255
255
0
255
255
0
255
255
0
255
255
0
255
255
0
255
255
0
255
255
0
255
255
0
255
255
0
255
255
0
255
34
177
76
34
177
76
181
230
29
34
177
76
34
177
76
181
230
29
34
177
76
34
177
76
34
177
76
181
230
29
181
230
29
181
230
29
181
230
29
34
177
76
34
177
76
181
230
29
181
230
29
181
230
29
181
230
29
181
230
29
181
230
29
181
230
29
181
230
29
181
230
29
181
230
29
181
230
29
181
230
29
181
230
29
181
230
29
181
230
29
181
230
29
181
230
29
181
230
29
181
230
29
181
230
29
181
230
29
181
230
29
181
230
29
181
230
29
181
230
29
181
230
29
181
230
29
181
230
29
181
230
29
181
230
29
181
230
29
181
230
29
181
230
29
181
230
29
181
230
29
34
177
76
34
177
76
255
0
255
255
0
255
255
0
255
255
0
255
255
0
255
255
0
255
255
0
255
255
0
255
255
0
255
255
0
255
34
177
76
34
177
76
181
230
29
181
230
29
181
230
29
181
230
29
34
177
76
34
177
76
181
230
29
181
230
29
181
230
29
181
230
29
181
230
29
181
230
29
181
230
29
181
230
29
181
230
29
181
230
29
181
230
29
181
230
29
181
230
29
181
230
29
181
230
29
34
177
76
181
230
29
181
230
29
34
177
76
181
230
29
34
177
76
181
230
29
181
230
29
181
230
29
181
230
29
181
230
29
34
177
76
181
230
29
181
230
29
181
230
29
181
230
29
181
230
29
181
230
29
181
230
29
181
230
29
181
230
29
181
230
29
181
230
29
34
177
76
181
230
29
181
230
29
181
230
29
181
230
29
181
230
29
181
230
29
181
230
29
34
177
76
34
177
76
255
0
255
255
0
255
255
0
255
255
0
255
255
0
255
255
0
255
34
177
76
34
177
76
181
230
29
181
230
29
34
177
76
181
230
29
181
230
29
181
230
29
181
230
29
181
230
29
34
177
76
181
230
29
181
230
29
181
230
29
181
230
29
181
230
29
34
177
76
181
230
29
181
230
29
181
230
29
181
230
29
34
177
76
181
230
29
181
230
29
181
230
29
181
230
29
34
177
76
181
230
29
181
230
29
181
230
29
181
230
29
181
230
29
34
177
76
34
177
76
181
230
29
34
177
76
181
230
29
181
230
29
181
230
29
181
230
29
181
230
29
181
230
29
34
177
76
181
230
29
181
230
29
34
177
76
181
230
29
181
230
29
181
230
29
181
230
29
181
230
29
34
177
76
34
177
76
181
230
29
34
177
76
181
230
29
181
230
29
181
230
29
34
177
76
34
177
76
255
0
255
255
0
255
34
177
76
34
177
76
181
230
29
181
230
29
181
230
29
181
230
29
181
230
29
181
230
29
181
230
29
181
230
29
181
230
29
181
230
29
34
177
76
181
230
29
181
230
29
181
230
29
34
177
76
181
230
29
181
230
29
181
230
29
34
177
76
34
177
76
34
177
76
34
177
76
181
230
29
181
230
29
181
230
29
34
177
76
181
230
29
181
230
29
181
230
29
181
230
29
181
230
29
34
177
76
181
230
29
181
230
29
181
230
29
34
177
76
181
230
29
181
230
29
181
230
29
181
230
29
34
177
76
181
230
29
181
230
29
181
230
29
181
230
29
181
230
29
181
230
29
181
230
29
34
177
76
181
230
29
34
177
76
181
230
29
181
230
29
181
230
29
34
177
76
181
230
29
34
177
76
181
230
29
181
230
29
181
230
29
34
177
76
34
177
76
255
0
255
34
177
76
34
177
76
181
230
29
181
230
29
181
230
29
181
230
29
181
230
29
181
230
29
181
230
29
181
230
29
181
230
29
181
230
29
34
177
76
181
230
29
34
177
76
181
230
29
181
230
29
181
230
29
181
230
29
34
177
76
181
230
29
181
230
29
181
230
29
181
230
29
181
230
29
181
230
29
181
230
29
181
230
29
181
230
29
181
230
29
181
230
29
181
230
29
181
230
29
181
230
29
181
230
29
181
230
29
181
230
29
34
177
76
181
230
29
181
230
29
181
230
29
181
230
29
181
230
29
181
230
29
181
230
29
181
230
29
181
230
29
181
230
29
181
230
29
181
230
29
181
230
29
181
230
29
181
230
29
34
177
76
181
230
29
181
230
29
181
230
29
181
230
29
181
230
29
181
230
29
34
177
76
34
177
76
255
0
255
255
0
255
255
0
255
255
0
255
34
177
76
34
177
76
181
230
29
181
230
29
181
230
29
181
230
29
181
230
29
181
230
29
34
177
76
181
230
29
181
230
29
181
230
29
181
230
29
181
230
29
181
230
29
181
230
29
181
230
29
181
230
29
181
230
29
34
177
76
181
230
29
181
230
29
181
230
29
34
177
76
181
230
29
181
230
29
181
230
29
181
230
29
181
230
29
181
230
29
34
177
76
181
230
29
181
230
29
181
230
29
181
230
29
34
177
76
181
230
29
181
230
29
34
177
76
181
230
29
181
230
29
181
230
29
181
230
29
34
177
76
181
230
29
181
230
29
181
230
29
181
230
29
181
230
29
181
230
29
181
230
29
181
230
29
181
230
29
181
230
29
181
230
29
181
230
29
34
177
76
34
177
76
255
0
255
255
0
255
255
0
255
255
0
255
255
0
255
255
0
255
255
0
255
255
0
255
34
177
76
34
177
76
181
230
29
181
230
29
181
230
29
181
230
29
181
230
29
181
230
29
181
230
29
34
177
76
181
230
29
181
230
29
181
230
29
181
230
29
181
230
29
181
230
29
181
230
29
34
177
76
34
177
76
34
177
76
34
177
76
181
230
29
181
230
29
181
230
29
181
230
29
181
230
29
181
230
29
181
230
29
34
177
76
34
177
76
181
230
29
181
230
29
34
177
76
181
230
29
34
177
76
181
230
29
181
230
29
181
230
29
181
230
29
181
230
29
181
230
29
181
230
29
181
230
29
181
230
29
181
230
29
34
177
76
181
230
29
181
230
29
181
230
29
181
230
29
34
177
76
181
230
29
34
177
76
34
177
76
255
0
255
255
0
255
255
0
255
255
0
255
255
0
255
255
0
255
255
0
255
255
0
255
255
0
255
255
0
255
255
0
255
255
0
255
34
177
76
34
177
76
181
230
29
181
230
29
181
230
29
181
230
29
181
230
29
34
177
76
181
230
29
181
230
29
181
230
29
181
230
29
181
230
29
181
230
29
181
230
29
181
230
29
181
230
29
181
230
29
181
230
29
181
230
29
181
230
29
181
230
29
181
230
29
181
230
29
181
230
29
34
177
76
181
230
29
181
230
29
181
230
29
181
230
29
181
230
29
34
177
76
181
230
29
34
177
76
181
230
29
181
230
29
34
177
76
181
230
29
181
230
29
181
230
29
181
230
29
181
230
29
181
230
29
181
230
29
181
230
29
181
230
29
181
230
29
181
230
29
34
177
76
34
177
76
255
0
255
255
0
255
255
0
255
255
0
255
255
0
255
255
0
255
255
0
255
255
0
255
255
0
255
255
0
255
255
0
255
255
0
255
255
0
255
255
0
255
255
0
255
255
0
255
34
177
76
34
177
76
181
230
29
34
177
76
181
230
29
181
230
29
181
230
29
181
230
29
181
230
29
181
230
29
181
230
29
34
177
76
181
230
29
181
230
29
181
230
29
34
177
76
181
230
29
181
230
29
181
230
29
181
230
29
34
177
76
181
230
29
34
177
76
181
230
29
181
230
29
181
230
29
181
230
29
181
230
29
181
230
29
181
230
29
181
230
29
181
230
29
181
230
29
181
230
29
181
230
29
181
230
29
181
230
29
181
230
29
181
230
29
181
230
29
181
230
29
181
230
29
181
230
29
181
230
29
34
177
76
34
177
76
255
0
255
255
0
255
255
0
255
255
0
255
255
0
255
255
0
255
255
0
255
255
0
255
255
0
255
255
0
255
255
0
255
255
0
255
255
0
255
255
0
255
255
0
255
255
0
255
255
0
255
255
0
255
255
0
255
255
0
255
34
177
76
34
177
76
181
230
29
181
230
29
181
230
29
181
230
29
181
230
29
181
230
29
181
230
29
181
230
29
181
230
29
181
230
29
181
230
29
34
177
76
181
230
29
34
177
76
181
230
29
181
230
29
181
230
29
181
230
29
181
230
29
181
230
29
181
230
29
181
230
29
181
230
29
34
177
76
181
230
29
181
230
29
181
230
29
181
230
29
181
230
29
181
230
29
181
230
29
181
230
29
181
230
29
34
177
76
181
230
29
181
230
29
181
230
29
181
230
29
34
177
76
34
177
76
255
0
255
255
0
255
255
0
255
255
0
255
255
0
255
255
0
255
255
0
255
255
0
255
255
0
255
255
0
255
255
0
255
255
0
255
255
0
255
255
0
255
255
0
255
255
0
255
255
0
255
255
0
255
255
0
255
255
0
255
255
0
255
255
0
255
255
0
255
255
0
255
34
177
76
34
177
76
181
230
29
181
230
29
181
230
29
181
230
29
181
230
29
181
230
29
181
230
29
181
230
29
181
230
29
181
230
29
181
230
29
181
230
29
181
230
29
181
230
29
181
230
29
181
230
29
181
230
29
181
230
29
181
230
29
34
177
76
181
230
29
181
230
29
34
177
76
181
230
29
181
230
29
34
177
76
181
230
29
181
230
29
181
230
29
181
230
29
181
230
29
181
230
29
181
230
29
181
230
29
34
177
76
34
177
76
255
0
255
255
0
255
255
0
255
255
0
255
255
0
255
255
0
255
255
0
255
255
0
255
255
0
255
255
0
255
255
0
255
255
0
255
255
0
255
255
0
255
255
0
255
255
0
255
255
0
255
255
0
255
255
0
255
255
0
255
255
0
255
255
0
255
255
0
255
255
0
255
255
0
255
255
0
255
255
0
255
255
0
255
34
177
76
34
177
76
181
230
29
181
230
29
181
230
29
181
230
29
181
230
29
181
230
29
181
230
29
181
230
29
181
230
29
181
230
29
181
230
29
181
230
29
181
230
29
181
230
29
181
230
29
181
230
29
181
230
29
181
230
29
34
177
76
181
230
29
181
230
29
181
230
29
181
230
29
181
230
29
181
230
29
181
230
29
181
230
29
34
177
76
181
230
29
181
230
29
34
177
76
34
177
76
255
0
255
255
0
255
255
0
255
255
0
255
255
0
255
255
0
255
255
0
255
255
0
255
255
0
255
255
0
255
255
0
255
255
0
255
255
0
255
255
0
255
255
0
255
255
0
255
255
0
255
255
0
255
255
0
255
255
0
255
255
0
255
255
0
255
255
0
255
255
0
255
255
0
255
255
0
255
255
0
255
255
0
255
255
0
255
255
0
255
255
0
255
255
0
255
34
177
76
34
177
76
181
230
29
181
230
29
181
230
29
181
230
29
181
230
29
181
230
29
181
230
29
181
230
29
181
230
29
181
230
29
34
177
76
181
230
29
34
177
76
181
230
29
181
230
29
181
230
29
181
230
29
181
230
29
181
230
29
181
230
29
181
230
29
181
230
29
181
230
29
34
177
76
181
230
29
181
230
29
34
177
76
34
177
76
255
0
255
255
0
255
255
0
255
255
0
255
255
0
255
255
0
255
255
0
255
255
0
255
255
0
255
255
0
255
255
0
255
255
0
255
255
0
255
255
0
255
255
0
255
255
0
255
255
0
255
255
0
255
255
0
255
255
0
255
255
0
255
255
0
255
255
0
255
255
0
255
255
0
255
255
0
255
255
0
255
255
0
255
255
0
255
255
0
255
255
0
255
255
0
255
255
0
255
255
0
255
255
0
255
255
0
255
34
177
76
34
177
76
181
230
29
181
230
29
181
230
29
181
230
29
181
230
29
181
230
29
181
230
29
181
230
29
34
177
76
181
230
29
181
230
29
181
230
29
181
230
29
181
230
29
181
230
29
181
230
29
181
230
29
181
230
29
181
230
29
181
230
29
181
230
29
181
230
29
34
177
76
34
177
76
255
0
255
255
0
255
255
0
255
255
0
255
255
0
255
255
0
255
255
0
255
255
0
255
255
0
255
255
0
255
255
0
255
255
0
255
255
0
255
255
0
255
255
0
255
255
0
255
255
0
255
255
0
255
255
0
255
255
0
255
255
0
255
255
0
255
255
0
255
255
0
255
255
0
255
255
0
255
255
0
255
255
0
255
255
0
255
255
0
255
255
0
255
255
0
255
255
0
255
255
0
255
255
0
255
255
0
255
255
0
255
255
0
255
255
0
255
255
0
255
34
177
76
34
177
76
181
230
29
181
230
29
181
230
29
181
230
29
181
230
29
181
230
29
181
230
29
181
230
29
181
230
29
181
230
29
181
230
29
181
230
29
34
177
76
181
230
29
181
230
29
181
230
29
181
230
29
181
230
29
34
177
76
34
177
76
255
0
255
255
0
255
255
0
255
255
0
255
255
0
255
255
0
255
255
0
255
255
0
255
255
0
255
255
0
255
255
0
255
255
0
255
255
0
255
255
0
255
255
0
255
255
0
255
255
0
255
255
0
255
255
0
255
255
0
255
255
0
255
255
0
255
255
0
255
255
0
255
255
0
255
255
0
255
255
0
255
255
0
255
255
0
255
255
0
255
255
0
255
255
0
255
255
0
255
255
0
255
255
0
255
255
0
255
255
0
255
255
0
255
255
0
255
255
0
255
255
0
255
255
0
255
255
0
255
255
0
255
34
177
76
34
177
76
181
230
29
181
230
29
181
230
29
181
230
29
181
230
29
181
230
29
181
230
29
181
230
29
34
177
76
181
230
29
181
230
29
34
177
76
181
230
29
181
230
29
34
177
76
34
177
76
255
0
255
255
0
255
255
0
255
255
0
255
255
0
255
255
0
255
255
0
255
255
0
255
255
0
255
255
0
255
255
0
255
255
0
255
255
0
255
255
0
255
255
0
255
255
0
255
255
0
255
255
0
255
255
0
255
255
0
255
255
0
255
255
0
255
255
0
255
255
0
255
255
0
255
255
0
255
255
0
255
255
0
255
255
0
255
255
0
255
255
0
255
255
0
255
255
0
255
255
0
255
255
0
255
255
0
255
255
0
255
255
0
255
255
0
255
255
0
255
255
0
255
255
0
255
255
0
255
255
0
255
255
0
255
255
0
255
255
0
255
255
0
255
34
177
76
34
177
76
181
230
29
181
230
29
181
230
29
34
177
76
34
177
76
181
230
29
181
230
29
181
230
29
34
177
76
181
230
29
34
177
76
34
177
76
255
0
255
255
0
255
255
0
255
255
0
255
255
0
255
255
0
255
255
0
255
255
0
255
255
0
255
255
0
255
255
0
255
255
0
255
255
0
255
255
0
255
255
0
255
255
0
255
255
0
255
255
0
255
255
0
255
255
0
255
255
0
255
255
0
255
255
0
255
255
0
255
255
0
255
255
0
255
255
0
255
255
0
255
255
0
255
255
0
255
255
0
255
255
0
255
255
0
255
255
0
255
255
0
255
255
0
255
255
0
255
255
0
255
255
0
255
255
0
255
255
0
255
255
0
255
255
0
255
255
0
255
255
0
255
255
0
255
255
0
255
255
0
255
255
0
255
255
0
255
255
0
255
255
0
255
34
177
76
34
177
76
181
230
29
181
230
29
181
230
29
181
230
29
181
230
29
181
230
29
34
177
76
34
177
76
255
0
255
255
0
255
255
0
255
255
0
255
255
0
255
255
0
255
255
0
255
255
0
255
255
0
255
255
0
255
255
0
255
255
0
255
255
0
255
255
0
255
255
0
255
255
0
255
255
0
255
255
0
255
255
0
255
255
0
255
255
0
255
255
0
255
255
0
255
255
0
255
255
0
255
255
0
255
255
0
255
255
0
255
255
0
255
255
0
255
255
0
255
255
0
255
255
0
255
255
0
255
255
0
255
255
0
255
255
0
255
255
0
255
255
0
255
255
0
255
255
0
255
255
0
255
255
0
255
255
0
255
255
0
255
255
0
255
255
0
255
255
0
255
255
0
255
255
0
255
255
0
255
255
0
255
255
0
255
255
0
255
255
0
255
255
0
255
34
177
76
34
177
76
181
230
29
181
230
29
34
177
76
34
177
76
255
0
255
255
0
255
255
0
255
255
0
255
255
0
255
255
0
255
255
0
255
255
0
255
255
0
255
255
0
255
255
0
255
255
0
255
255
0
255
255
0
255
255
0
255
255
0
255
255
0
255
255
0
255
255
0
255
255
0
255
255
0
255
255
0
255
255
0
255
255
0
255
255
0
255
255
0
255
255
0
255
255
0
255
255
0
255
255
0
255
255
0
255
255
0
255
255
0
255
255
0
255
255
0
255
255
0
255
255
0
255
255
0
255
255
0
255
255
0
255
255
0
255
255
0
255
255
0
255
255
0
255
255
0
255
255
0
255
255
0
255
255
0
255
255
0
255
255
0
255
255
0
255
255
0
255
255
0
255
255
0
255
255
0
255
255
0
255
255
0
255
255
0
255
255
0
255
255
0
255
34
177
76
34
177
76
255
0
255
255
0
255
255
0
255
255
0
255
255
0
255
255
0
255
255
0
255
255
0
255
255
0
255
255
0
255
255
0
255
255
0
255
255
0
255
255
0
255
255
0
255
255
0
255
255
0
255
255
0
255
255
0
255
255
0
255
255
0
255
255
0
255
255
0
255
255
0
255
255
0
255
255
0
255
255
0
255
255
0
255
255
0
255
255
0
255
255
0
255
