P3
# CREATOR
64
32
255
255
0
255
255
0
255
255
0
255
255
0
255
255
0
255
255
0
255
255
0
255
255
0
255
255
0
255
255
0
255
255
0
255
255
0
255
255
0
255
255
0
255
255
0
255
255
0
255
255
0
255
255
0
255
255
0
255
255
0
255
255
0
255
255
0
255
255
0
255
255
0
255
255
0
255
255
0
255
255
0
255
255
0
255
255
0
255
255
0
255
255
0
255
217
202
171
221
206
177
255
0
255
255
0
255
255
0
255
255
0
255
255
0
255
255
0
255
255
0
255
255
0
255
255
0
255
255
0
255
255
0
255
255
0
255
255
0
255
255
0
255
255
0
255
255
0
255
255
0
255
255
0
255
255
0
255
255
0
255
255
0
255
255
0
255
255
0
255
255
0
255
255
0
255
255
0
255
255
0
255
255
0
255
255
0
255
255
0
255
255
0
255
255
0
255
255
0
255
255
0
255
255
0
255
255
0
255
255
0
255
255
0
255
255
0
255
255
0
255
255
0
255
255
0
255
255
0
255
255
0
255
255
0
255
255
0
255
255
0
255
255
0
255
255
0
255
255
0
255
255
0
255
255
0
255
255
0
255
255
0
255
255
0
255
255
0
255
255
0
255
255
0
255
255
0
255
255
0
255
216
198
166
214
201
171
217
202
171
221
206
177
212
195
163
205
188
155
255
0
255
255
0
255
255
0
255
255
0
255
255
0
255
255
0
255
255
0
255
255
0
255
255
0
255
255
0
255
255
0
255
255
0
255
255
0
255
255
0
255
255
0
255
255
0
255
255
0
255
255
0
255
255
0
255
255
0
255
255
0
255
255
0
255
255
0
255
255
0
255
255
0
255
255
0
255
255
0
255
255
0
255
255
0
255
255
0
255
255
0
255
255
0
255
255
0
255
255
0
255
255
0
255
255
0
255
255
0
255
255
0
255
255
0
255
255
0
255
255
0
255
255
0
255
255
0
255
255
0
255
255
0
255
255
0
255
255
0
255
255
0
255
255
0
255
255
0
255
255
0
255
255
0
255
255
0
255
255
0
255
255
0
255
255
0
255
212
195
163
217
202
171
212
195
163
212
195
163
216
198
166
216
198
166
205
188
155
181
170
137
191
185
162
196
186
161
255
0
255
255
0
255
255
0
255
255
0
255
255
0
255
255
0
255
255
0
255
255
0
255
255
0
255
255
0
255
255
0
255
255
0
255
255
0
255
255
0
255
255
0
255
255
0
255
255
0
255
255
0
255
255
0
255
255
0
255
255
0
255
255
0
255
255
0
255
255
0
255
255
0
255
255
0
255
255
0
255
255
0
255
255
0
255
255
0
255
255
0
255
255
0
255
255
0
255
255
0
255
255
0
255
255
0
255
255
0
255
255
0
255
255
0
255
255
0
255
255
0
255
255
0
255
255
0
255
255
0
255
255
0
255
255
0
255
255
0
255
255
0
255
255
0
255
255
0
255
255
0
255
255
0
255
169
171
117
190
173
136
205
188
155
212
195
163
212
195
163
212
195
163
216
198
166
221
206
177
201
183
152
148
130
98
139
121
94
172
153
120
205
188
155
210
192
158
255
0
255
255
0
255
255
0
255
255
0
255
255
0
255
255
0
255
255
0
255
255
0
255
255
0
255
255
0
255
255
0
255
255
0
255
255
0
255
255
0
255
255
0
255
255
0
255
255
0
255
255
0
255
255
0
255
255
0
255
255
0
255
255
0
255
255
0
255
255
0
255
255
0
255
255
0
255
255
0
255
255
0
255
255
0
255
255
0
255
255
0
255
255
0
255
255
0
255
255
0
255
255
0
255
255
0
255
255
0
255
255
0
255
255
0
255
255
0
255
255
0
255
255
0
255
255
0
255
255
0
255
255
0
255
255
0
255
255
0
255
255
0
255
84
127
44
132
157
86
148
172
98
154
163
99
170
178
118
185
182
134
205
195
155
190
173
136
147
124
85
201
182
148
212
195
163
201
183
152
197
180
148
205
188
155
205
188
155
205
188
155
205
188
155
205
192
164
255
0
255
255
0
255
255
0
255
255
0
255
255
0
255
255
0
255
255
0
255
255
0
255
255
0
255
255
0
255
255
0
255
255
0
255
255
0
255
255
0
255
255
0
255
255
0
255
255
0
255
255
0
255
255
0
255
255
0
255
255
0
255
255
0
255
255
0
255
255
0
255
255
0
255
255
0
255
255
0
255
255
0
255
255
0
255
255
0
255
255
0
255
255
0
255
255
0
255
255
0
255
255
0
255
255
0
255
255
0
255
255
0
255
255
0
255
255
0
255
255
0
255
255
0
255
255
0
255
255
0
255
91
147
43
86
140
41
91
147
43
118
165
66
116
149
72
138
156
95
147
158
101
162
171
111
190
188
140
188
180
137
178
174
124
205
195
155
212
195
163
212
195
163
216
198
166
198
178
142
178
164
123
197
180
148
198
184
154
182
165
132
201
183
152
212
195
163
255
0
255
255
0
255
255
0
255
255
0
255
255
0
255
255
0
255
255
0
255
255
0
255
255
0
255
255
0
255
255
0
255
255
0
255
255
0
255
255
0
255
255
0
255
255
0
255
255
0
255
255
0
255
255
0
255
255
0
255
255
0
255
255
0
255
255
0
255
255
0
255
255
0
255
255
0
255
255
0
255
255
0
255
255
0
255
255
0
255
255
0
255
255
0
255
255
0
255
255
0
255
255
0
255
255
0
255
255
0
255
255
0
255
255
0
255
255
0
255
98
162
46
101
162
49
105
165
53
89
141
44
86
140
41
91
147
43
104
142
59
123
156
75
123
156
75
130
165
80
148
172
98
174
178
123
169
171
117
188
180
137
210
192
158
223
208
177
221
206
177
210
192
158
193
174
135
197
180
148
214
206
182
198
184
154
204
190
160
214
201
171
212
195
163
209
190
156
255
0
255
255
0
255
255
0
255
255
0
255
255
0
255
255
0
255
255
0
255
255
0
255
255
0
255
255
0
255
255
0
255
255
0
255
255
0
255
255
0
255
255
0
255
255
0
255
255
0
255
255
0
255
255
0
255
255
0
255
255
0
255
255
0
255
255
0
255
255
0
255
255
0
255
255
0
255
255
0
255
255
0
255
255
0
255
255
0
255
255
0
255
255
0
255
255
0
255
255
0
255
255
0
255
255
0
255
98
162
46
94
154
44
94
154
44
91
147
43
105
165
53
87
144
40
83
139
38
94
154
44
75
125
34
105
165
53
94
154
44
89
141
44
97
148
50
137
169
84
160
178
105
170
178
118
195
193
138
205
195
155
205
195
155
212
195
163
212
195
163
172
153
120
194
182
152
194
174
140
182
165
132
182
165
132
205
188
155
214
199
169
205
188
155
201
183
152
255
0
255
255
0
255
255
0
255
255
0
255
255
0
255
255
0
255
255
0
255
255
0
255
255
0
255
255
0
255
255
0
255
255
0
255
255
0
255
255
0
255
255
0
255
255
0
255
255
0
255
255
0
255
255
0
255
255
0
255
255
0
255
255
0
255
255
0
255
255
0
255
255
0
255
255
0
255
255
0
255
255
0
255
255
0
255
255
0
255
255
0
255
255
0
255
83
139
38
81
134
37
87
145
39
91
147
43
91
147
43
81
134
37
97
156
46
86
140
41
81
134
37
87
144
40
83
139
38
87
145
39
94
154
44
94
154
44
91
147
43
99
155
50
93
141
49
107
147
62
143
171
94
176
182
128
185
182
134
209
200
162
209
200
162
178
164
123
160
140
109
187
167
131
197
180
148
201
182
148
212
195
163
214
201
171
214
199
169
205
188
155
201
182
148
210
192
158
255
0
255
255
0
255
255
0
255
255
0
255
255
0
255
255
0
255
255
0
255
255
0
255
255
0
255
255
0
255
255
0
255
255
0
255
255
0
255
255
0
255
255
0
255
255
0
255
255
0
255
255
0
255
255
0
255
255
0
255
255
0
255
255
0
255
255
0
255
255
0
255
255
0
255
255
0
255
255
0
255
255
0
255
83
139
38
97
156
46
91
147
43
94
154
44
78
131
35
83
139
38
83
139
38
94
154
44
91
147
43
86
140
41
97
156
46
83
139
38
81
134
37
78
131
35
86
140
41
81
134
37
98
162
46
91
147
43
81
134
37
78
131
35
92
131
52
118
152
74
139
161
90
170
178
118
171
185
124
165
176
115
181
170
137
194
182
152
201
182
148
204
185
150
205
188
155
212
195
163
204
185
150
197
180
148
201
183
152
205
188
155
212
195
163
212
195
163
255
0
255
255
0
255
255
0
255
255
0
255
255
0
255
255
0
255
255
0
255
255
0
255
255
0
255
255
0
255
255
0
255
255
0
255
255
0
255
255
0
255
255
0
255
255
0
255
255
0
255
255
0
255
255
0
255
255
0
255
255
0
255
255
0
255
255
0
255
255
0
255
78
131
35
94
154
44
87
144
40
97
148
50
83
139
38
94
154
44
87
144
40
85
135
41
86
140
41
78
131
35
91
147
43
108
171
54
101
162
49
103
168
49
94
154
44
87
145
39
88
147
39
75
125
34
87
144
40
81
134
37
75
125
34
71
120
32
97
156
46
104
158
54
103
146
56
118
152
74
125
163
77
132
157
86
183
186
137
179
171
130
185
186
133
188
180
137
187
167
131
201
182
148
201
183
152
205
192
164
197
180
148
204
185
150
212
195
163
217
202
171
216
198
166
212
195
163
255
0
255
255
0
255
255
0
255
255
0
255
255
0
255
255
0
255
255
0
255
255
0
255
255
0
255
255
0
255
255
0
255
255
0
255
255
0
255
255
0
255
255
0
255
255
0
255
255
0
255
255
0
255
255
0
255
255
0
255
85
135
41
86
140
41
71
120
32
91
147
43
83
139
38
97
156
46
75
125
34
75
125
34
91
147
43
75
125
34
75
125
34
99
155
50
98
162
46
88
147
39
81
134
37
88
147
39
91
147
43
87
145
39
113
172
60
78
131
35
75
125
34
83
139
38
71
120
32
71
120
32
81
134
37
86
140
41
104
158
54
118
165
66
102
141
59
124
145
81
152
155
100
165
176
115
137
169
84
147
158
101
178
164
123
198
184
154
214
201
171
212
195
163
201
182
148
216
198
166
214
199
169
217
202
171
201
183
152
210
192
158
209
190
156
210
192
158
255
0
255
255
0
255
255
0
255
255
0
255
255
0
255
255
0
255
255
0
255
255
0
255
255
0
255
255
0
255
255
0
255
255
0
255
255
0
255
255
0
255
255
0
255
255
0
255
91
147
43
78
131
35
94
154
44
111
171
57
81
134
37
91
147
43
85
135
41
89
141
44
85
135
41
71
120
32
91
147
43
99
155
50
98
162
46
86
140
41
91
147
43
81
134
37
83
139
38
91
147
43
78
131
35
83
139
38
87
144
40
81
134
37
78
131
35
86
140
41
72
119
35
81
134
37
113
172
60
85
135
41
91
147
43
99
155
50
99
155
50
111
142
66
123
156
75
107
147
62
97
148
50
126
152
80
157
167
109
152
155
100
169
174
122
205
195
155
204
185
150
201
182
148
212
195
163
210
192
158
193
174
135
198
178
142
212
195
163
201
182
148
209
190
156
216
198
166
255
0
255
255
0
255
255
0
255
255
0
255
255
0
255
255
0
255
255
0
255
255
0
255
255
0
255
255
0
255
255
0
255
255
0
255
97
148
50
91
147
43
94
154
44
99
155
50
105
165
53
104
158
54
81
134
37
78
131
35
81
134
37
86
140
41
83
139
38
78
131
35
86
140
41
88
147
39
98
162
46
87
145
39
62
106
27
75
125
34
78
131
35
81
134
37
81
134
37
78
131
35
81
134
37
91
147
43
91
147
43
86
140
41
81
134
37
97
148
50
99
155
50
83
139
38
78
131
35
81
134
37
94
154
44
89
141
44
93
141
49
81
134
37
85
135
41
92
131
52
115
146
71
134
151
87
124
145
81
153
171
112
169
174
122
185
182
134
205
188
155
205
188
155
201
182
148
205
188
155
214
199
169
212
195
163
210
192
158
212
195
163
214
199
169
214
199
169
255
0
255
255
0
255
255
0
255
255
0
255
255
0
255
255
0
255
255
0
255
255
0
255
85
135
41
70
121
30
91
147
43
97
148
50
99
155
50
81
134
37
94
154
44
101
162
49
86
140
41
81
134
37
81
134
37
91
147
43
91
147
43
78
131
35
86
140
41
94
154
44
78
131
35
83
139
38
81
134
37
94
154
44
86
140
41
91
147
43
86
140
41
86
140
41
85
135
41
81
134
37
101
162
49
86
140
41
91
147
43
99
155
50
87
144
40
87
144
40
75
125
34
75
125
34
89
141
44
83
139
38
97
148
50
72
119
35
94
154
44
88
131
47
102
141
59
130
168
81
116
153
68
139
176
90
135
160
90
143
144
98
182
165
132
214
199
169
201
183
152
194
174
140
201
182
148
216
198
166
212
195
163
209
190
156
201
182
148
201
182
148
198
178
142
184
162
125
255
0
255
255
0
255
255
0
255
255
0
255
86
140
41
86
140
41
97
148
50
83
139
38
91
147
43
104
158
54
87
144
40
97
148
50
81
134
37
103
168
49
94
154
44
87
144
40
86
140
41
91
147
43
99
155
50
86
140
41
78
131
35
83
139
38
88
147
39
70
121
30
99
155
50
109
163
61
78
131
35
104
158
54
91
147
43
81
134
37
86
140
41
97
148
50
94
154
44
83
139
38
89
141
44
83
139
38
91
147
43
91
147
43
81
134
37
83
139
38
91
147
43
86
140
41
83
139
38
83
139
38
81
134
37
104
158
54
84
127
44
97
148
50
97
148
50
97
148
50
123
156
75
146
154
91
148
151
93
165
176
115
190
188
140
205
188
155
204
185
150
209
190
156
212
195
163
212
195
163
204
185
150
201
182
148
204
185
150
187
167
131
168
144
107
194
174
140
255
0
255
255
0
255
87
144
40
86
140
41
83
139
38
81
134
37
91
147
43
105
165
53
99
155
50
105
165
53
97
148
50
99
155
50
78
131
35
94
154
44
94
154
44
83
139
38
91
147
43
94
154
44
91
147
43
81
134
37
72
123
31
81
134
37
75
125
34
96
151
47
88
147
39
91
147
43
88
131
47
109
163
61
99
155
50
94
154
44
91
147
43
97
156
46
95
148
48
85
135
41
97
156
46
99
155
50
85
135
41
85
135
41
85
135
41
85
135
41
72
123
31
78
131
35
86
140
41
86
140
41
101
162
49
104
158
54
89
141
44
91
147
43
97
143
52
131
156
76
126
147
79
137
156
96
163
178
124
194
194
148
182
187
127
193
191
141
209
200
162
216
198
166
214
201
171
212
195
163
212
195
163
209
190
156
212
195
163
210
192
158
255
0
255
255
0
255
255
0
255
255
0
255
81
134
37
94
154
44
89
141
44
111
171
57
86
140
41
101
162
49
78
131
35
86
140
41
81
134
37
94
154
44
94
154
44
97
156
46
86
140
41
97
156
46
104
158
54
89
141
44
75
125
34
81
134
37
86
140
41
91
147
43
86
140
41
91
147
43
85
135
41
104
158
54
94
154
44
83
139
38
91
147
43
91
147
43
91
147
43
93
141
49
89
141
44
95
148
48
93
141
49
99
155
50
78
131
35
86
140
41
75
125
34
81
134
37
78
131
35
78
131
35
105
165
53
94
154
44
91
147
43
87
145
39
81
134
37
104
142
59
130
165
80
137
156
96
163
178
124
154
174
106
144
171
95
154
162
113
193
184
147
179
171
130
174
178
123
185
182
134
197
180
148
209
190
156
255
0
255
255
0
255
255
0
255
255
0
255
255
0
255
255
0
255
255
0
255
255
0
255
101
162
49
94
154
44
78
131
35
99
155
50
87
144
40
83
139
38
91
147
43
91
147
43
85
135
41
81
134
37
81
134
37
91
147
43
83
139
38
91
147
43
86
140
41
86
140
41
83
139
38
75
125
34
91
147
43
91
147
43
105
165
53
94
154
44
94
154
44
86
140
41
85
135
41
91
147
43
89
141
44
120
179
65
99
155
50
91
147
43
91
147
43
101
162
49
86
140
41
87
144
40
75
125
34
86
140
41
83
139
38
70
121
30
85
135
41
104
158
54
89
141
44
91
147
43
94
154
44
97
143
52
107
147
62
121
162
68
121
162
68
107
147
62
125
163
77
154
174
106
170
178
118
169
171
117
169
174
122
162
170
113
255
0
255
255
0
255
255
0
255
255
0
255
255
0
255
255
0
255
255
0
255
255
0
255
255
0
255
255
0
255
255
0
255
255
0
255
78
131
35
86
140
41
81
134
37
91
147
43
86
140
41
97
156
46
96
151
47
81
134
37
91
147
43
91
147
43
83
139
38
87
144
40
83
139
38
91
147
43
86
140
41
86
140
41
91
147
43
99
155
50
99
155
50
83
139
38
86
140
41
99
155
50
91
147
43
91
147
43
83
139
38
99
155
50
101
162
49
86
140
41
85
135
41
91
147
43
83
139
38
81
134
37
78
131
35
81
134
37
97
156
46
87
144
40
99
155
50
99
155
50
89
141
44
85
135
41
86
140
41
99
155
50
91
147
43
105
165
53
88
147
39
81
134
37
89
141
44
103
146
56
125
163
77
132
157
86
255
0
255
255
0
255
255
0
255
255
0
255
255
0
255
255
0
255
255
0
255
255
0
255
255
0
255
255
0
255
255
0
255
255
0
255
255
0
255
255
0
255
255
0
255
255
0
255
91
147
43
89
141
44
94
154
44
91
147
43
99
155
50
75
125
34
94
154
44
86
140
41
81
134
37
86
140
41
89
141
44
81
134
37
86
140
41
91
147
43
99
155
50
108
171
54
109
163
61
83
139
38
72
123
31
97
156
46
111
171
57
88
147
39
86
140
41
91
147
43
86
140
41
86
140
41
86
140
41
91
147
43
81
134
37
87
144
40
68
117
29
81
134
37
91
147
43
83
139
38
91
147
43
105
165
53
91
147
43
94
154
44
78
131
35
91
147
43
75
125
34
97
156
46
78
131
35
85
135
41
75
125
34
83
139
38
255
0
255
255
0
255
255
0
255
255
0
255
255
0
255
255
0
255
255
0
255
255
0
255
255
0
255
255
0
255
255
0
255
255
0
255
255
0
255
255
0
255
255
0
255
255
0
255
255
0
255
255
0
255
255
0
255
255
0
255
83
139
38
97
156
46
78
131
35
70
121
30
98
162
46
87
144
40
81
134
37
85
135
41
81
134
37
91
147
43
91
147
43
87
144
40
86
140
41
113
172
60
97
148
50
81
134
37
86
140
41
87
144
40
94
154
44
83
139
38
78
131
35
81
134
37
87
145
39
87
144
40
83
139
38
89
141
44
87
144
40
71
120
32
78
131
35
78
131
35
81
134
37
75
125
34
94
154
44
105
165
53
101
162
49
103
168
49
78
131
35
91
147
43
89
141
44
97
156
46
83
139
38
91
147
43
255
0
255
255
0
255
255
0
255
255
0
255
255
0
255
255
0
255
255
0
255
255
0
255
255
0
255
255
0
255
255
0
255
255
0
255
255
0
255
255
0
255
255
0
255
255
0
255
255
0
255
255
0
255
255
0
255
255
0
255
255
0
255
255
0
255
255
0
255
255
0
255
86
140
41
68
117
29
83
139
38
99
155
50
87
144
40
91
147
43
91
147
43
95
148
48
87
144
40
94
154
44
86
140
41
89
141
44
94
154
44
86
140
41
81
134
37
91
147
43
75
125
34
81
134
37
78
131
35
83
139
38
78
131
35
96
151
47
87
144
40
85
135
41
94
154
44
94
154
44
87
144
40
86
140
41
91
147
43
94
154
44
81
134
37
91
147
43
85
135
41
99
155
50
87
145
39
94
154
44
99
155
50
113
172
60
255
0
255
255
0
255
255
0
255
255
0
255
255
0
255
255
0
255
255
0
255
255
0
255
255
0
255
255
0
255
255
0
255
255
0
255
255
0
255
255
0
255
255
0
255
255
0
255
255
0
255
255
0
255
255
0
255
255
0
255
255
0
255
255
0
255
255
0
255
255
0
255
255
0
255
255
0
255
255
0
255
255
0
255
78
131
35
88
147
39
88
147
39
99
155
50
97
156
46
91
147
43
94
154
44
94
154
44
83
139
38
87
145
39
97
156
46
86
140
41
83
139
38
86
140
41
88
147
39
83
139
38
87
144
40
75
125
34
81
134
37
91
147
43
75
125
34
83
139
38
87
144
40
81
134
37
83
139
38
88
147
39
83
139
38
91
147
43
94
154
44
103
168
49
94
154
44
86
140
41
94
154
44
83
139
38
255
0
255
255
0
255
255
0
255
255
0
255
255
0
255
255
0
255
255
0
255
255
0
255
255
0
255
255
0
255
255
0
255
255
0
255
255
0
255
255
0
255
255
0
255
255
0
255
255
0
255
255
0
255
255
0
255
255
0
255
255
0
255
255
0
255
255
0
255
255
0
255
255
0
255
255
0
255
255
0
255
255
0
255
255
0
255
255
0
255
255
0
255
255
0
255
83
139
38
91
147
43
83
139
38
91
147
43
91
147
43
86
140
41
81
134
37
101
162
49
99
155
50
85
135
41
78
131
35
78
131
35
94
154
44
86
140
41
87
145
39
94
154
44
68
117
29
94
154
44
83
139
38
88
147
39
91
147
43
98
162
46
83
139
38
78
131
35
75
125
34
83
139
38
88
147
39
101
162
49
91
147
43
83
139
38
255
0
255
255
0
255
255
0
255
255
0
255
255
0
255
255
0
255
255
0
255
255
0
255
255
0
255
255
0
255
255
0
255
255
0
255
255
0
255
255
0
255
255
0
255
255
0
255
255
0
255
255
0
255
255
0
255
255
0
255
255
0
255
255
0
255
255
0
255
255
0
255
255
0
255
255
0
255
255
0
255
255
0
255
255
0
255
255
0
255
255
0
255
255
0
255
255
0
255
255
0
255
255
0
255
255
0
255
88
147
39
94
154
44
81
134
37
81
134
37
78
131
35
88
147
39
91
147
43
87
144
40
98
162
46
78
131
35
83
139
38
88
147
39
78
131
35
81
134
37
75
125
34
83
139
38
88
147
39
83
139
38
94
154
44
91
147
43
75
125
34
83
139
38
78
131
35
68
117
29
94
154
44
108
171
54
255
0
255
255
0
255
255
0
255
255
0
255
255
0
255
255
0
255
255
0
255
255
0
255
255
0
255
255
0
255
255
0
255
255
0
255
255
0
255
255
0
255
255
0
255
255
0
255
255
0
255
255
0
255
255
0
255
255
0
255
255
0
255
255
0
255
255
0
255
255
0
255
255
0
255
255
0
255
255
0
255
255
0
255
255
0
255
255
0
255
255
0
255
255
0
255
255
0
255
255
0
255
255
0
255
255
0
255
255
0
255
255
0
255
255
0
255
255
0
255
85
135
41
83
139
38
78
131
35
87
145
39
97
156
46
91
147
43
94
154
44
87
144
40
72
123
31
81
134
37
83
139
38
91
147
43
81
134
37
75
125
34
87
145
39
83
139
38
86
140
41
88
147
39
94
154
44
97
156
46
83
139
38
78
131
35
255
0
255
255
0
255
255
0
255
255
0
255
255
0
255
255
0
255
255
0
255
255
0
255
255
0
255
255
0
255
255
0
255
255
0
255
255
0
255
255
0
255
255
0
255
255
0
255
255
0
255
255
0
255
255
0
255
255
0
255
255
0
255
255
0
255
255
0
255
255
0
255
255
0
255
255
0
255
255
0
255
255
0
255
255
0
255
255
0
255
255
0
255
255
0
255
255
0
255
255
0
255
255
0
255
255
0
255
255
0
255
255
0
255
255
0
255
255
0
255
255
0
255
255
0
255
255
0
255
255
0
255
68
117
29
86
140
41
97
148
50
108
171
54
78
131
35
78
131
35
68
117
29
87
145
39
83
139
38
91
147
43
91
147
43
91
147
43
75
125
34
83
139
38
88
147
39
91
147
43
83
139
38
86
140
41
255
0
255
255
0
255
255
0
255
255
0
255
255
0
255
255
0
255
255
0
255
255
0
255
255
0
255
255
0
255
255
0
255
255
0
255
255
0
255
255
0
255
255
0
255
255
0
255
255
0
255
255
0
255
255
0
255
255
0
255
255
0
255
255
0
255
255
0
255
255
0
255
255
0
255
255
0
255
255
0
255
255
0
255
255
0
255
255
0
255
255
0
255
255
0
255
255
0
255
255
0
255
255
0
255
255
0
255
255
0
255
255
0
255
255
0
255
255
0
255
255
0
255
255
0
255
255
0
255
255
0
255
255
0
255
255
0
255
255
0
255
255
0
255
91
147
43
97
148
50
86
140
41
83
139
38
87
145
39
78
131
35
83
139
38
97
156
46
99
155
50
88
147
39
83
139
38
94
154
44
88
147
39
87
144
40
255
0
255
255
0
255
255
0
255
255
0
255
255
0
255
255
0
255
255
0
255
255
0
255
255
0
255
255
0
255
255
0
255
255
0
255
255
0
255
255
0
255
255
0
255
255
0
255
255
0
255
255
0
255
255
0
255
255
0
255
255
0
255
255
0
255
255
0
255
255
0
255
255
0
255
255
0
255
255
0
255
255
0
255
255
0
255
255
0
255
255
0
255
255
0
255
255
0
255
255
0
255
255
0
255
255
0
255
255
0
255
255
0
255
255
0
255
255
0
255
255
0
255
255
0
255
255
0
255
255
0
255
255
0
255
255
0
255
255
0
255
255
0
255
255
0
255
255
0
255
255
0
255
255
0
255
81
134
37
83
139
38
86
140
41
86
140
41
81
134
37
99
155
50
91
147
43
83
139
38
88
147
39
97
156
46
255
0
255
255
0
255
255
0
255
255
0
255
255
0
255
255
0
255
255
0
255
255
0
255
255
0
255
255
0
255
255
0
255
255
0
255
255
0
255
255
0
255
255
0
255
255
0
255
255
0
255
255
0
255
255
0
255
255
0
255
255
0
255
255
0
255
255
0
255
255
0
255
255
0
255
255
0
255
255
0
255
255
0
255
255
0
255
255
0
255
255
0
255
255
0
255
255
0
255
255
0
255
255
0
255
255
0
255
255
0
255
255
0
255
255
0
255
255
0
255
255
0
255
255
0
255
255
0
255
255
0
255
255
0
255
255
0
255
255
0
255
255
0
255
255
0
255
255
0
255
255
0
255
255
0
255
255
0
255
255
0
255
255
0
255
255
0
255
86
140
41
99
155
50
83
139
38
91
147
43
78
131
35
75
125
34
255
0
255
255
0
255
255
0
255
255
0
255
255
0
255
255
0
255
255
0
255
255
0
255
255
0
255
255
0
255
255
0
255
255
0
255
255
0
255
255
0
255
255
0
255
255
0
255
255
0
255
255
0
255
255
0
255
255
0
255
255
0
255
255
0
255
255
0
255
255
0
255
255
0
255
255
0
255
255
0
255
255
0
255
255
0
255
255
0
255
255
0
255
255
0
255
255
0
255
255
0
255
255
0
255
255
0
255
255
0
255
255
0
255
255
0
255
255
0
255
255
0
255
255
0
255
255
0
255
255
0
255
255
0
255
255
0
255
255
0
255
255
0
255
255
0
255
255
0
255
255
0
255
255
0
255
255
0
255
255
0
255
255
0
255
255
0
255
255
0
255
255
0
255
255
0
255
255
0
255
91
147
43
83
139
38
255
0
255
255
0
255
255
0
255
255
0
255
255
0
255
255
0
255
255
0
255
255
0
255
255
0
255
255
0
255
255
0
255
255
0
255
255
0
255
255
0
255
255
0
255
255
0
255
255
0
255
255
0
255
255
0
255
255
0
255
255
0
255
255
0
255
255
0
255
255
0
255
255
0
255
255
0
255
255
0
255
255
0
255
255
0
255
255
0
255
255
0
255
